M48
; DRILL file {KiCad 9.0.3} date 2025-07-25T18:40:59+0200
; FORMAT={-:-/ absolute / metric / decimal}
; #@! TF.CreationDate,2025-07-25T18:40:59+02:00
; #@! TF.GenerationSoftware,Kicad,Pcbnew,9.0.3
; #@! TF.FileFunction,Plated,1,2,PTH
FMAT,2
METRIC
; #@! TA.AperFunction,Plated,PTH,ComponentDrill
T1C0.800
; #@! TA.AperFunction,Plated,PTH,ComponentDrill
T2C0.900
; #@! TA.AperFunction,Plated,PTH,ComponentDrill
T3C1.000
; #@! TA.AperFunction,Plated,PTH,ComponentDrill
T4C1.100
%
G90
G05
T1
X57.02Y-83.46
X57.02Y-97.46
X67.18Y-83.46
X67.18Y-97.46
T2
X57.06Y-75.5
X57.06Y-89.96
X59.6Y-75.5
X59.6Y-89.96
T3
X44.0Y-75.38
X44.0Y-77.92
X44.0Y-80.46
X44.0Y-83.0
X44.0Y-89.96
X44.0Y-92.5
X44.0Y-95.04
X44.0Y-97.58
X50.0Y-46.5
X50.0Y-49.04
X50.0Y-51.58
X50.0Y-54.12
X50.0Y-60.96
X50.0Y-63.5
X50.0Y-66.04
X50.0Y-68.58
X50.0Y-75.42
X50.0Y-77.96
X50.0Y-80.5
X50.0Y-83.04
X50.0Y-89.96
X50.0Y-92.5
X50.0Y-95.04
X50.0Y-97.58
X75.225Y-46.52
X75.225Y-49.06
X75.225Y-51.6
X75.225Y-54.14
X75.225Y-56.68
X75.225Y-59.22
X75.225Y-61.76
X75.225Y-64.3
X75.225Y-66.84
X75.225Y-69.38
X75.225Y-71.92
X75.225Y-74.46
X75.225Y-77.0
X75.225Y-79.54
X75.225Y-82.08
X101.0Y-46.52
X101.0Y-49.06
X101.0Y-51.6
X101.0Y-54.14
X101.0Y-56.68
X101.0Y-59.22
X101.0Y-61.76
X101.0Y-64.3
X101.0Y-66.84
X101.0Y-69.38
X101.0Y-71.92
X101.0Y-74.46
X101.0Y-77.0
X101.0Y-79.54
X101.0Y-82.08
T4
X57.0Y-46.5
X57.0Y-51.0
X57.0Y-61.0
X57.0Y-65.5
X63.5Y-46.5
X63.5Y-51.0
X63.5Y-61.0
X63.5Y-65.5
M30
