%TF.GenerationSoftware,KiCad,Pcbnew,9.0.6*%
%TF.CreationDate,2025-12-16T22:47:36+01:00*%
%TF.ProjectId,power_control.kicad_proj,706f7765-725f-4636-9f6e-74726f6c2e6b,rev?*%
%TF.SameCoordinates,Original*%
%TF.FileFunction,Legend,Top*%
%TF.FilePolarity,Positive*%
%FSLAX46Y46*%
G04 Gerber Fmt 4.6, Leading zero omitted, Abs format (unit mm)*
G04 Created by KiCad (PCBNEW 9.0.6) date 2025-12-16 22:47:36*
%MOMM*%
%LPD*%
G01*
G04 APERTURE LIST*
%ADD10C,0.100000*%
%ADD11C,0.187500*%
%ADD12C,0.125000*%
%ADD13C,0.150000*%
%ADD14C,0.120000*%
G04 APERTURE END LIST*
D10*
X78375312Y-62372419D02*
X78041979Y-61896228D01*
X77803884Y-62372419D02*
X77803884Y-61372419D01*
X77803884Y-61372419D02*
X78184836Y-61372419D01*
X78184836Y-61372419D02*
X78280074Y-61420038D01*
X78280074Y-61420038D02*
X78327693Y-61467657D01*
X78327693Y-61467657D02*
X78375312Y-61562895D01*
X78375312Y-61562895D02*
X78375312Y-61705752D01*
X78375312Y-61705752D02*
X78327693Y-61800990D01*
X78327693Y-61800990D02*
X78280074Y-61848609D01*
X78280074Y-61848609D02*
X78184836Y-61896228D01*
X78184836Y-61896228D02*
X77803884Y-61896228D01*
X78756265Y-62324800D02*
X78899122Y-62372419D01*
X78899122Y-62372419D02*
X79137217Y-62372419D01*
X79137217Y-62372419D02*
X79232455Y-62324800D01*
X79232455Y-62324800D02*
X79280074Y-62277180D01*
X79280074Y-62277180D02*
X79327693Y-62181942D01*
X79327693Y-62181942D02*
X79327693Y-62086704D01*
X79327693Y-62086704D02*
X79280074Y-61991466D01*
X79280074Y-61991466D02*
X79232455Y-61943847D01*
X79232455Y-61943847D02*
X79137217Y-61896228D01*
X79137217Y-61896228D02*
X78946741Y-61848609D01*
X78946741Y-61848609D02*
X78851503Y-61800990D01*
X78851503Y-61800990D02*
X78803884Y-61753371D01*
X78803884Y-61753371D02*
X78756265Y-61658133D01*
X78756265Y-61658133D02*
X78756265Y-61562895D01*
X78756265Y-61562895D02*
X78803884Y-61467657D01*
X78803884Y-61467657D02*
X78851503Y-61420038D01*
X78851503Y-61420038D02*
X78946741Y-61372419D01*
X78946741Y-61372419D02*
X79184836Y-61372419D01*
X79184836Y-61372419D02*
X79327693Y-61420038D01*
X79613408Y-61372419D02*
X80184836Y-61372419D01*
X79899122Y-62372419D02*
X79899122Y-61372419D01*
X81232456Y-62324800D02*
X81375313Y-62372419D01*
X81375313Y-62372419D02*
X81613408Y-62372419D01*
X81613408Y-62372419D02*
X81708646Y-62324800D01*
X81708646Y-62324800D02*
X81756265Y-62277180D01*
X81756265Y-62277180D02*
X81803884Y-62181942D01*
X81803884Y-62181942D02*
X81803884Y-62086704D01*
X81803884Y-62086704D02*
X81756265Y-61991466D01*
X81756265Y-61991466D02*
X81708646Y-61943847D01*
X81708646Y-61943847D02*
X81613408Y-61896228D01*
X81613408Y-61896228D02*
X81422932Y-61848609D01*
X81422932Y-61848609D02*
X81327694Y-61800990D01*
X81327694Y-61800990D02*
X81280075Y-61753371D01*
X81280075Y-61753371D02*
X81232456Y-61658133D01*
X81232456Y-61658133D02*
X81232456Y-61562895D01*
X81232456Y-61562895D02*
X81280075Y-61467657D01*
X81280075Y-61467657D02*
X81327694Y-61420038D01*
X81327694Y-61420038D02*
X81422932Y-61372419D01*
X81422932Y-61372419D02*
X81661027Y-61372419D01*
X81661027Y-61372419D02*
X81803884Y-61420038D01*
X82137218Y-61372419D02*
X82375313Y-62372419D01*
X82375313Y-62372419D02*
X82565789Y-61658133D01*
X82565789Y-61658133D02*
X82756265Y-62372419D01*
X82756265Y-62372419D02*
X82994361Y-61372419D01*
X77803884Y-64872419D02*
X77803884Y-63872419D01*
X77803884Y-63872419D02*
X78184836Y-63872419D01*
X78184836Y-63872419D02*
X78280074Y-63920038D01*
X78280074Y-63920038D02*
X78327693Y-63967657D01*
X78327693Y-63967657D02*
X78375312Y-64062895D01*
X78375312Y-64062895D02*
X78375312Y-64205752D01*
X78375312Y-64205752D02*
X78327693Y-64300990D01*
X78327693Y-64300990D02*
X78280074Y-64348609D01*
X78280074Y-64348609D02*
X78184836Y-64396228D01*
X78184836Y-64396228D02*
X77803884Y-64396228D01*
X78708646Y-63872419D02*
X78946741Y-64872419D01*
X78946741Y-64872419D02*
X79137217Y-64158133D01*
X79137217Y-64158133D02*
X79327693Y-64872419D01*
X79327693Y-64872419D02*
X79565789Y-63872419D01*
X80518169Y-64872419D02*
X80184836Y-64396228D01*
X79946741Y-64872419D02*
X79946741Y-63872419D01*
X79946741Y-63872419D02*
X80327693Y-63872419D01*
X80327693Y-63872419D02*
X80422931Y-63920038D01*
X80422931Y-63920038D02*
X80470550Y-63967657D01*
X80470550Y-63967657D02*
X80518169Y-64062895D01*
X80518169Y-64062895D02*
X80518169Y-64205752D01*
X80518169Y-64205752D02*
X80470550Y-64300990D01*
X80470550Y-64300990D02*
X80422931Y-64348609D01*
X80422931Y-64348609D02*
X80327693Y-64396228D01*
X80327693Y-64396228D02*
X79946741Y-64396228D01*
X81661027Y-64824800D02*
X81803884Y-64872419D01*
X81803884Y-64872419D02*
X82041979Y-64872419D01*
X82041979Y-64872419D02*
X82137217Y-64824800D01*
X82137217Y-64824800D02*
X82184836Y-64777180D01*
X82184836Y-64777180D02*
X82232455Y-64681942D01*
X82232455Y-64681942D02*
X82232455Y-64586704D01*
X82232455Y-64586704D02*
X82184836Y-64491466D01*
X82184836Y-64491466D02*
X82137217Y-64443847D01*
X82137217Y-64443847D02*
X82041979Y-64396228D01*
X82041979Y-64396228D02*
X81851503Y-64348609D01*
X81851503Y-64348609D02*
X81756265Y-64300990D01*
X81756265Y-64300990D02*
X81708646Y-64253371D01*
X81708646Y-64253371D02*
X81661027Y-64158133D01*
X81661027Y-64158133D02*
X81661027Y-64062895D01*
X81661027Y-64062895D02*
X81708646Y-63967657D01*
X81708646Y-63967657D02*
X81756265Y-63920038D01*
X81756265Y-63920038D02*
X81851503Y-63872419D01*
X81851503Y-63872419D02*
X82089598Y-63872419D01*
X82089598Y-63872419D02*
X82232455Y-63920038D01*
X82565789Y-63872419D02*
X82803884Y-64872419D01*
X82803884Y-64872419D02*
X82994360Y-64158133D01*
X82994360Y-64158133D02*
X83184836Y-64872419D01*
X83184836Y-64872419D02*
X83422932Y-63872419D01*
X77803884Y-67372419D02*
X77803884Y-66372419D01*
X77803884Y-66372419D02*
X78184836Y-66372419D01*
X78184836Y-66372419D02*
X78280074Y-66420038D01*
X78280074Y-66420038D02*
X78327693Y-66467657D01*
X78327693Y-66467657D02*
X78375312Y-66562895D01*
X78375312Y-66562895D02*
X78375312Y-66705752D01*
X78375312Y-66705752D02*
X78327693Y-66800990D01*
X78327693Y-66800990D02*
X78280074Y-66848609D01*
X78280074Y-66848609D02*
X78184836Y-66896228D01*
X78184836Y-66896228D02*
X77803884Y-66896228D01*
X78708646Y-66372419D02*
X78946741Y-67372419D01*
X78946741Y-67372419D02*
X79137217Y-66658133D01*
X79137217Y-66658133D02*
X79327693Y-67372419D01*
X79327693Y-67372419D02*
X79565789Y-66372419D01*
X80518169Y-67372419D02*
X80184836Y-66896228D01*
X79946741Y-67372419D02*
X79946741Y-66372419D01*
X79946741Y-66372419D02*
X80327693Y-66372419D01*
X80327693Y-66372419D02*
X80422931Y-66420038D01*
X80422931Y-66420038D02*
X80470550Y-66467657D01*
X80470550Y-66467657D02*
X80518169Y-66562895D01*
X80518169Y-66562895D02*
X80518169Y-66705752D01*
X80518169Y-66705752D02*
X80470550Y-66800990D01*
X80470550Y-66800990D02*
X80422931Y-66848609D01*
X80422931Y-66848609D02*
X80327693Y-66896228D01*
X80327693Y-66896228D02*
X79946741Y-66896228D01*
X82184836Y-67372419D02*
X81708646Y-67372419D01*
X81708646Y-67372419D02*
X81708646Y-66372419D01*
X82518170Y-66848609D02*
X82851503Y-66848609D01*
X82994360Y-67372419D02*
X82518170Y-67372419D01*
X82518170Y-67372419D02*
X82518170Y-66372419D01*
X82518170Y-66372419D02*
X82994360Y-66372419D01*
X83422932Y-67372419D02*
X83422932Y-66372419D01*
X83422932Y-66372419D02*
X83661027Y-66372419D01*
X83661027Y-66372419D02*
X83803884Y-66420038D01*
X83803884Y-66420038D02*
X83899122Y-66515276D01*
X83899122Y-66515276D02*
X83946741Y-66610514D01*
X83946741Y-66610514D02*
X83994360Y-66800990D01*
X83994360Y-66800990D02*
X83994360Y-66943847D01*
X83994360Y-66943847D02*
X83946741Y-67134323D01*
X83946741Y-67134323D02*
X83899122Y-67229561D01*
X83899122Y-67229561D02*
X83803884Y-67324800D01*
X83803884Y-67324800D02*
X83661027Y-67372419D01*
X83661027Y-67372419D02*
X83422932Y-67372419D01*
X70303884Y-62372419D02*
X70303884Y-61372419D01*
X70303884Y-61372419D02*
X70541979Y-61372419D01*
X70541979Y-61372419D02*
X70684836Y-61420038D01*
X70684836Y-61420038D02*
X70780074Y-61515276D01*
X70780074Y-61515276D02*
X70827693Y-61610514D01*
X70827693Y-61610514D02*
X70875312Y-61800990D01*
X70875312Y-61800990D02*
X70875312Y-61943847D01*
X70875312Y-61943847D02*
X70827693Y-62134323D01*
X70827693Y-62134323D02*
X70780074Y-62229561D01*
X70780074Y-62229561D02*
X70684836Y-62324800D01*
X70684836Y-62324800D02*
X70541979Y-62372419D01*
X70541979Y-62372419D02*
X70303884Y-62372419D01*
X71208646Y-61372419D02*
X71827693Y-61372419D01*
X71827693Y-61372419D02*
X71494360Y-61753371D01*
X71494360Y-61753371D02*
X71637217Y-61753371D01*
X71637217Y-61753371D02*
X71732455Y-61800990D01*
X71732455Y-61800990D02*
X71780074Y-61848609D01*
X71780074Y-61848609D02*
X71827693Y-61943847D01*
X71827693Y-61943847D02*
X71827693Y-62181942D01*
X71827693Y-62181942D02*
X71780074Y-62277180D01*
X71780074Y-62277180D02*
X71732455Y-62324800D01*
X71732455Y-62324800D02*
X71637217Y-62372419D01*
X71637217Y-62372419D02*
X71351503Y-62372419D01*
X71351503Y-62372419D02*
X71256265Y-62324800D01*
X71256265Y-62324800D02*
X71208646Y-62277180D01*
X72161027Y-61372419D02*
X72780074Y-61372419D01*
X72780074Y-61372419D02*
X72446741Y-61753371D01*
X72446741Y-61753371D02*
X72589598Y-61753371D01*
X72589598Y-61753371D02*
X72684836Y-61800990D01*
X72684836Y-61800990D02*
X72732455Y-61848609D01*
X72732455Y-61848609D02*
X72780074Y-61943847D01*
X72780074Y-61943847D02*
X72780074Y-62181942D01*
X72780074Y-62181942D02*
X72732455Y-62277180D01*
X72732455Y-62277180D02*
X72684836Y-62324800D01*
X72684836Y-62324800D02*
X72589598Y-62372419D01*
X72589598Y-62372419D02*
X72303884Y-62372419D01*
X72303884Y-62372419D02*
X72208646Y-62324800D01*
X72208646Y-62324800D02*
X72161027Y-62277180D01*
X70303884Y-64872419D02*
X70303884Y-63872419D01*
X70303884Y-63872419D02*
X70541979Y-63872419D01*
X70541979Y-63872419D02*
X70684836Y-63920038D01*
X70684836Y-63920038D02*
X70780074Y-64015276D01*
X70780074Y-64015276D02*
X70827693Y-64110514D01*
X70827693Y-64110514D02*
X70875312Y-64300990D01*
X70875312Y-64300990D02*
X70875312Y-64443847D01*
X70875312Y-64443847D02*
X70827693Y-64634323D01*
X70827693Y-64634323D02*
X70780074Y-64729561D01*
X70780074Y-64729561D02*
X70684836Y-64824800D01*
X70684836Y-64824800D02*
X70541979Y-64872419D01*
X70541979Y-64872419D02*
X70303884Y-64872419D01*
X71256265Y-63967657D02*
X71303884Y-63920038D01*
X71303884Y-63920038D02*
X71399122Y-63872419D01*
X71399122Y-63872419D02*
X71637217Y-63872419D01*
X71637217Y-63872419D02*
X71732455Y-63920038D01*
X71732455Y-63920038D02*
X71780074Y-63967657D01*
X71780074Y-63967657D02*
X71827693Y-64062895D01*
X71827693Y-64062895D02*
X71827693Y-64158133D01*
X71827693Y-64158133D02*
X71780074Y-64300990D01*
X71780074Y-64300990D02*
X71208646Y-64872419D01*
X71208646Y-64872419D02*
X71827693Y-64872419D01*
X72732455Y-63872419D02*
X72256265Y-63872419D01*
X72256265Y-63872419D02*
X72208646Y-64348609D01*
X72208646Y-64348609D02*
X72256265Y-64300990D01*
X72256265Y-64300990D02*
X72351503Y-64253371D01*
X72351503Y-64253371D02*
X72589598Y-64253371D01*
X72589598Y-64253371D02*
X72684836Y-64300990D01*
X72684836Y-64300990D02*
X72732455Y-64348609D01*
X72732455Y-64348609D02*
X72780074Y-64443847D01*
X72780074Y-64443847D02*
X72780074Y-64681942D01*
X72780074Y-64681942D02*
X72732455Y-64777180D01*
X72732455Y-64777180D02*
X72684836Y-64824800D01*
X72684836Y-64824800D02*
X72589598Y-64872419D01*
X72589598Y-64872419D02*
X72351503Y-64872419D01*
X72351503Y-64872419D02*
X72256265Y-64824800D01*
X72256265Y-64824800D02*
X72208646Y-64777180D01*
X70303884Y-67372419D02*
X70303884Y-66372419D01*
X70303884Y-66372419D02*
X70541979Y-66372419D01*
X70541979Y-66372419D02*
X70684836Y-66420038D01*
X70684836Y-66420038D02*
X70780074Y-66515276D01*
X70780074Y-66515276D02*
X70827693Y-66610514D01*
X70827693Y-66610514D02*
X70875312Y-66800990D01*
X70875312Y-66800990D02*
X70875312Y-66943847D01*
X70875312Y-66943847D02*
X70827693Y-67134323D01*
X70827693Y-67134323D02*
X70780074Y-67229561D01*
X70780074Y-67229561D02*
X70684836Y-67324800D01*
X70684836Y-67324800D02*
X70541979Y-67372419D01*
X70541979Y-67372419D02*
X70303884Y-67372419D01*
X71256265Y-66467657D02*
X71303884Y-66420038D01*
X71303884Y-66420038D02*
X71399122Y-66372419D01*
X71399122Y-66372419D02*
X71637217Y-66372419D01*
X71637217Y-66372419D02*
X71732455Y-66420038D01*
X71732455Y-66420038D02*
X71780074Y-66467657D01*
X71780074Y-66467657D02*
X71827693Y-66562895D01*
X71827693Y-66562895D02*
X71827693Y-66658133D01*
X71827693Y-66658133D02*
X71780074Y-66800990D01*
X71780074Y-66800990D02*
X71208646Y-67372419D01*
X71208646Y-67372419D02*
X71827693Y-67372419D01*
X72684836Y-66372419D02*
X72494360Y-66372419D01*
X72494360Y-66372419D02*
X72399122Y-66420038D01*
X72399122Y-66420038D02*
X72351503Y-66467657D01*
X72351503Y-66467657D02*
X72256265Y-66610514D01*
X72256265Y-66610514D02*
X72208646Y-66800990D01*
X72208646Y-66800990D02*
X72208646Y-67181942D01*
X72208646Y-67181942D02*
X72256265Y-67277180D01*
X72256265Y-67277180D02*
X72303884Y-67324800D01*
X72303884Y-67324800D02*
X72399122Y-67372419D01*
X72399122Y-67372419D02*
X72589598Y-67372419D01*
X72589598Y-67372419D02*
X72684836Y-67324800D01*
X72684836Y-67324800D02*
X72732455Y-67277180D01*
X72732455Y-67277180D02*
X72780074Y-67181942D01*
X72780074Y-67181942D02*
X72780074Y-66943847D01*
X72780074Y-66943847D02*
X72732455Y-66848609D01*
X72732455Y-66848609D02*
X72684836Y-66800990D01*
X72684836Y-66800990D02*
X72589598Y-66753371D01*
X72589598Y-66753371D02*
X72399122Y-66753371D01*
X72399122Y-66753371D02*
X72303884Y-66800990D01*
X72303884Y-66800990D02*
X72256265Y-66848609D01*
X72256265Y-66848609D02*
X72208646Y-66943847D01*
X50372419Y-68759925D02*
X50372419Y-69236115D01*
X50372419Y-69236115D02*
X50848609Y-69283734D01*
X50848609Y-69283734D02*
X50800990Y-69236115D01*
X50800990Y-69236115D02*
X50753371Y-69140877D01*
X50753371Y-69140877D02*
X50753371Y-68902782D01*
X50753371Y-68902782D02*
X50800990Y-68807544D01*
X50800990Y-68807544D02*
X50848609Y-68759925D01*
X50848609Y-68759925D02*
X50943847Y-68712306D01*
X50943847Y-68712306D02*
X51181942Y-68712306D01*
X51181942Y-68712306D02*
X51277180Y-68759925D01*
X51277180Y-68759925D02*
X51324800Y-68807544D01*
X51324800Y-68807544D02*
X51372419Y-68902782D01*
X51372419Y-68902782D02*
X51372419Y-69140877D01*
X51372419Y-69140877D02*
X51324800Y-69236115D01*
X51324800Y-69236115D02*
X51277180Y-69283734D01*
X50372419Y-68426591D02*
X51372419Y-68093258D01*
X51372419Y-68093258D02*
X50372419Y-67759925D01*
X41920038Y-69712306D02*
X41872419Y-69807544D01*
X41872419Y-69807544D02*
X41872419Y-69950401D01*
X41872419Y-69950401D02*
X41920038Y-70093258D01*
X41920038Y-70093258D02*
X42015276Y-70188496D01*
X42015276Y-70188496D02*
X42110514Y-70236115D01*
X42110514Y-70236115D02*
X42300990Y-70283734D01*
X42300990Y-70283734D02*
X42443847Y-70283734D01*
X42443847Y-70283734D02*
X42634323Y-70236115D01*
X42634323Y-70236115D02*
X42729561Y-70188496D01*
X42729561Y-70188496D02*
X42824800Y-70093258D01*
X42824800Y-70093258D02*
X42872419Y-69950401D01*
X42872419Y-69950401D02*
X42872419Y-69855163D01*
X42872419Y-69855163D02*
X42824800Y-69712306D01*
X42824800Y-69712306D02*
X42777180Y-69664687D01*
X42777180Y-69664687D02*
X42443847Y-69664687D01*
X42443847Y-69664687D02*
X42443847Y-69855163D01*
X42872419Y-69236115D02*
X41872419Y-69236115D01*
X41872419Y-69236115D02*
X42872419Y-68664687D01*
X42872419Y-68664687D02*
X41872419Y-68664687D01*
X42872419Y-68188496D02*
X41872419Y-68188496D01*
X41872419Y-68188496D02*
X41872419Y-67950401D01*
X41872419Y-67950401D02*
X41920038Y-67807544D01*
X41920038Y-67807544D02*
X42015276Y-67712306D01*
X42015276Y-67712306D02*
X42110514Y-67664687D01*
X42110514Y-67664687D02*
X42300990Y-67617068D01*
X42300990Y-67617068D02*
X42443847Y-67617068D01*
X42443847Y-67617068D02*
X42634323Y-67664687D01*
X42634323Y-67664687D02*
X42729561Y-67712306D01*
X42729561Y-67712306D02*
X42824800Y-67807544D01*
X42824800Y-67807544D02*
X42872419Y-67950401D01*
X42872419Y-67950401D02*
X42872419Y-68188496D01*
X78327693Y-78920038D02*
X78232455Y-78872419D01*
X78232455Y-78872419D02*
X78089598Y-78872419D01*
X78089598Y-78872419D02*
X77946741Y-78920038D01*
X77946741Y-78920038D02*
X77851503Y-79015276D01*
X77851503Y-79015276D02*
X77803884Y-79110514D01*
X77803884Y-79110514D02*
X77756265Y-79300990D01*
X77756265Y-79300990D02*
X77756265Y-79443847D01*
X77756265Y-79443847D02*
X77803884Y-79634323D01*
X77803884Y-79634323D02*
X77851503Y-79729561D01*
X77851503Y-79729561D02*
X77946741Y-79824800D01*
X77946741Y-79824800D02*
X78089598Y-79872419D01*
X78089598Y-79872419D02*
X78184836Y-79872419D01*
X78184836Y-79872419D02*
X78327693Y-79824800D01*
X78327693Y-79824800D02*
X78375312Y-79777180D01*
X78375312Y-79777180D02*
X78375312Y-79443847D01*
X78375312Y-79443847D02*
X78184836Y-79443847D01*
X78803884Y-79872419D02*
X78803884Y-78872419D01*
X78803884Y-78872419D02*
X79375312Y-79872419D01*
X79375312Y-79872419D02*
X79375312Y-78872419D01*
X79851503Y-79872419D02*
X79851503Y-78872419D01*
X79851503Y-78872419D02*
X80089598Y-78872419D01*
X80089598Y-78872419D02*
X80232455Y-78920038D01*
X80232455Y-78920038D02*
X80327693Y-79015276D01*
X80327693Y-79015276D02*
X80375312Y-79110514D01*
X80375312Y-79110514D02*
X80422931Y-79300990D01*
X80422931Y-79300990D02*
X80422931Y-79443847D01*
X80422931Y-79443847D02*
X80375312Y-79634323D01*
X80375312Y-79634323D02*
X80327693Y-79729561D01*
X80327693Y-79729561D02*
X80232455Y-79824800D01*
X80232455Y-79824800D02*
X80089598Y-79872419D01*
X80089598Y-79872419D02*
X79851503Y-79872419D01*
D11*
X85480497Y-81520964D02*
X85980497Y-81520964D01*
X86194783Y-82306678D02*
X85480497Y-82306678D01*
X85480497Y-82306678D02*
X85480497Y-80806678D01*
X85480497Y-80806678D02*
X86194783Y-80806678D01*
X86766212Y-82235250D02*
X86980498Y-82306678D01*
X86980498Y-82306678D02*
X87337640Y-82306678D01*
X87337640Y-82306678D02*
X87480498Y-82235250D01*
X87480498Y-82235250D02*
X87551926Y-82163821D01*
X87551926Y-82163821D02*
X87623355Y-82020964D01*
X87623355Y-82020964D02*
X87623355Y-81878107D01*
X87623355Y-81878107D02*
X87551926Y-81735250D01*
X87551926Y-81735250D02*
X87480498Y-81663821D01*
X87480498Y-81663821D02*
X87337640Y-81592392D01*
X87337640Y-81592392D02*
X87051926Y-81520964D01*
X87051926Y-81520964D02*
X86909069Y-81449535D01*
X86909069Y-81449535D02*
X86837640Y-81378107D01*
X86837640Y-81378107D02*
X86766212Y-81235250D01*
X86766212Y-81235250D02*
X86766212Y-81092392D01*
X86766212Y-81092392D02*
X86837640Y-80949535D01*
X86837640Y-80949535D02*
X86909069Y-80878107D01*
X86909069Y-80878107D02*
X87051926Y-80806678D01*
X87051926Y-80806678D02*
X87409069Y-80806678D01*
X87409069Y-80806678D02*
X87623355Y-80878107D01*
X88266211Y-82306678D02*
X88266211Y-80806678D01*
X88266211Y-80806678D02*
X88837640Y-80806678D01*
X88837640Y-80806678D02*
X88980497Y-80878107D01*
X88980497Y-80878107D02*
X89051926Y-80949535D01*
X89051926Y-80949535D02*
X89123354Y-81092392D01*
X89123354Y-81092392D02*
X89123354Y-81306678D01*
X89123354Y-81306678D02*
X89051926Y-81449535D01*
X89051926Y-81449535D02*
X88980497Y-81520964D01*
X88980497Y-81520964D02*
X88837640Y-81592392D01*
X88837640Y-81592392D02*
X88266211Y-81592392D01*
X89623354Y-80806678D02*
X90551926Y-80806678D01*
X90551926Y-80806678D02*
X90051926Y-81378107D01*
X90051926Y-81378107D02*
X90266211Y-81378107D01*
X90266211Y-81378107D02*
X90409069Y-81449535D01*
X90409069Y-81449535D02*
X90480497Y-81520964D01*
X90480497Y-81520964D02*
X90551926Y-81663821D01*
X90551926Y-81663821D02*
X90551926Y-82020964D01*
X90551926Y-82020964D02*
X90480497Y-82163821D01*
X90480497Y-82163821D02*
X90409069Y-82235250D01*
X90409069Y-82235250D02*
X90266211Y-82306678D01*
X90266211Y-82306678D02*
X89837640Y-82306678D01*
X89837640Y-82306678D02*
X89694783Y-82235250D01*
X89694783Y-82235250D02*
X89623354Y-82163821D01*
X91123354Y-80949535D02*
X91194782Y-80878107D01*
X91194782Y-80878107D02*
X91337640Y-80806678D01*
X91337640Y-80806678D02*
X91694782Y-80806678D01*
X91694782Y-80806678D02*
X91837640Y-80878107D01*
X91837640Y-80878107D02*
X91909068Y-80949535D01*
X91909068Y-80949535D02*
X91980497Y-81092392D01*
X91980497Y-81092392D02*
X91980497Y-81235250D01*
X91980497Y-81235250D02*
X91909068Y-81449535D01*
X91909068Y-81449535D02*
X91051925Y-82306678D01*
X91051925Y-82306678D02*
X91980497Y-82306678D01*
D12*
X84821399Y-71203478D02*
X84821399Y-71679668D01*
X84821399Y-71679668D02*
X85297589Y-71727287D01*
X85297589Y-71727287D02*
X85249970Y-71679668D01*
X85249970Y-71679668D02*
X85202351Y-71584430D01*
X85202351Y-71584430D02*
X85202351Y-71346335D01*
X85202351Y-71346335D02*
X85249970Y-71251097D01*
X85249970Y-71251097D02*
X85297589Y-71203478D01*
X85297589Y-71203478D02*
X85392827Y-71155859D01*
X85392827Y-71155859D02*
X85630922Y-71155859D01*
X85630922Y-71155859D02*
X85726160Y-71203478D01*
X85726160Y-71203478D02*
X85773780Y-71251097D01*
X85773780Y-71251097D02*
X85821399Y-71346335D01*
X85821399Y-71346335D02*
X85821399Y-71584430D01*
X85821399Y-71584430D02*
X85773780Y-71679668D01*
X85773780Y-71679668D02*
X85726160Y-71727287D01*
X84821399Y-70870144D02*
X85821399Y-70536811D01*
X85821399Y-70536811D02*
X84821399Y-70203478D01*
X85821399Y-68298715D02*
X85821399Y-68346335D01*
X85821399Y-68346335D02*
X85773780Y-68441573D01*
X85773780Y-68441573D02*
X85630922Y-68584430D01*
X85630922Y-68584430D02*
X85345208Y-68822525D01*
X85345208Y-68822525D02*
X85202351Y-68917763D01*
X85202351Y-68917763D02*
X85059494Y-68965382D01*
X85059494Y-68965382D02*
X84964256Y-68965382D01*
X84964256Y-68965382D02*
X84869018Y-68917763D01*
X84869018Y-68917763D02*
X84821399Y-68822525D01*
X84821399Y-68822525D02*
X84821399Y-68774906D01*
X84821399Y-68774906D02*
X84869018Y-68679668D01*
X84869018Y-68679668D02*
X84964256Y-68632049D01*
X84964256Y-68632049D02*
X85011875Y-68632049D01*
X85011875Y-68632049D02*
X85107113Y-68679668D01*
X85107113Y-68679668D02*
X85154732Y-68727287D01*
X85154732Y-68727287D02*
X85345208Y-69013001D01*
X85345208Y-69013001D02*
X85392827Y-69060620D01*
X85392827Y-69060620D02*
X85488065Y-69108239D01*
X85488065Y-69108239D02*
X85630922Y-69108239D01*
X85630922Y-69108239D02*
X85726160Y-69060620D01*
X85726160Y-69060620D02*
X85773780Y-69013001D01*
X85773780Y-69013001D02*
X85821399Y-68917763D01*
X85821399Y-68917763D02*
X85821399Y-68774906D01*
X85821399Y-68774906D02*
X85773780Y-68679668D01*
X85773780Y-68679668D02*
X85726160Y-68632049D01*
X85726160Y-68632049D02*
X85535684Y-68489192D01*
X85535684Y-68489192D02*
X85392827Y-68441573D01*
X85392827Y-68441573D02*
X85297589Y-68441573D01*
X84869018Y-66584430D02*
X84821399Y-66679668D01*
X84821399Y-66679668D02*
X84821399Y-66822525D01*
X84821399Y-66822525D02*
X84869018Y-66965382D01*
X84869018Y-66965382D02*
X84964256Y-67060620D01*
X84964256Y-67060620D02*
X85059494Y-67108239D01*
X85059494Y-67108239D02*
X85249970Y-67155858D01*
X85249970Y-67155858D02*
X85392827Y-67155858D01*
X85392827Y-67155858D02*
X85583303Y-67108239D01*
X85583303Y-67108239D02*
X85678541Y-67060620D01*
X85678541Y-67060620D02*
X85773780Y-66965382D01*
X85773780Y-66965382D02*
X85821399Y-66822525D01*
X85821399Y-66822525D02*
X85821399Y-66727287D01*
X85821399Y-66727287D02*
X85773780Y-66584430D01*
X85773780Y-66584430D02*
X85726160Y-66536811D01*
X85726160Y-66536811D02*
X85392827Y-66536811D01*
X85392827Y-66536811D02*
X85392827Y-66727287D01*
X85821399Y-66108239D02*
X84821399Y-66108239D01*
X84821399Y-66108239D02*
X85821399Y-65536811D01*
X85821399Y-65536811D02*
X84821399Y-65536811D01*
X85821399Y-65060620D02*
X84821399Y-65060620D01*
X84821399Y-65060620D02*
X84821399Y-64822525D01*
X84821399Y-64822525D02*
X84869018Y-64679668D01*
X84869018Y-64679668D02*
X84964256Y-64584430D01*
X84964256Y-64584430D02*
X85059494Y-64536811D01*
X85059494Y-64536811D02*
X85249970Y-64489192D01*
X85249970Y-64489192D02*
X85392827Y-64489192D01*
X85392827Y-64489192D02*
X85583303Y-64536811D01*
X85583303Y-64536811D02*
X85678541Y-64584430D01*
X85678541Y-64584430D02*
X85773780Y-64679668D01*
X85773780Y-64679668D02*
X85821399Y-64822525D01*
X85821399Y-64822525D02*
X85821399Y-65060620D01*
X85154732Y-63441572D02*
X85154732Y-63060620D01*
X84821399Y-63298715D02*
X85678541Y-63298715D01*
X85678541Y-63298715D02*
X85773780Y-63251096D01*
X85773780Y-63251096D02*
X85821399Y-63155858D01*
X85821399Y-63155858D02*
X85821399Y-63060620D01*
X85821399Y-62584429D02*
X85773780Y-62679667D01*
X85773780Y-62679667D02*
X85726160Y-62727286D01*
X85726160Y-62727286D02*
X85630922Y-62774905D01*
X85630922Y-62774905D02*
X85345208Y-62774905D01*
X85345208Y-62774905D02*
X85249970Y-62727286D01*
X85249970Y-62727286D02*
X85202351Y-62679667D01*
X85202351Y-62679667D02*
X85154732Y-62584429D01*
X85154732Y-62584429D02*
X85154732Y-62441572D01*
X85154732Y-62441572D02*
X85202351Y-62346334D01*
X85202351Y-62346334D02*
X85249970Y-62298715D01*
X85249970Y-62298715D02*
X85345208Y-62251096D01*
X85345208Y-62251096D02*
X85630922Y-62251096D01*
X85630922Y-62251096D02*
X85726160Y-62298715D01*
X85726160Y-62298715D02*
X85773780Y-62346334D01*
X85773780Y-62346334D02*
X85821399Y-62441572D01*
X85821399Y-62441572D02*
X85821399Y-62584429D01*
X84821399Y-61060619D02*
X85630922Y-61060619D01*
X85630922Y-61060619D02*
X85726160Y-61013000D01*
X85726160Y-61013000D02*
X85773780Y-60965381D01*
X85773780Y-60965381D02*
X85821399Y-60870143D01*
X85821399Y-60870143D02*
X85821399Y-60679667D01*
X85821399Y-60679667D02*
X85773780Y-60584429D01*
X85773780Y-60584429D02*
X85726160Y-60536810D01*
X85726160Y-60536810D02*
X85630922Y-60489191D01*
X85630922Y-60489191D02*
X84821399Y-60489191D01*
X85773780Y-60060619D02*
X85821399Y-59917762D01*
X85821399Y-59917762D02*
X85821399Y-59679667D01*
X85821399Y-59679667D02*
X85773780Y-59584429D01*
X85773780Y-59584429D02*
X85726160Y-59536810D01*
X85726160Y-59536810D02*
X85630922Y-59489191D01*
X85630922Y-59489191D02*
X85535684Y-59489191D01*
X85535684Y-59489191D02*
X85440446Y-59536810D01*
X85440446Y-59536810D02*
X85392827Y-59584429D01*
X85392827Y-59584429D02*
X85345208Y-59679667D01*
X85345208Y-59679667D02*
X85297589Y-59870143D01*
X85297589Y-59870143D02*
X85249970Y-59965381D01*
X85249970Y-59965381D02*
X85202351Y-60013000D01*
X85202351Y-60013000D02*
X85107113Y-60060619D01*
X85107113Y-60060619D02*
X85011875Y-60060619D01*
X85011875Y-60060619D02*
X84916637Y-60013000D01*
X84916637Y-60013000D02*
X84869018Y-59965381D01*
X84869018Y-59965381D02*
X84821399Y-59870143D01*
X84821399Y-59870143D02*
X84821399Y-59632048D01*
X84821399Y-59632048D02*
X84869018Y-59489191D01*
X85297589Y-58727286D02*
X85345208Y-58584429D01*
X85345208Y-58584429D02*
X85392827Y-58536810D01*
X85392827Y-58536810D02*
X85488065Y-58489191D01*
X85488065Y-58489191D02*
X85630922Y-58489191D01*
X85630922Y-58489191D02*
X85726160Y-58536810D01*
X85726160Y-58536810D02*
X85773780Y-58584429D01*
X85773780Y-58584429D02*
X85821399Y-58679667D01*
X85821399Y-58679667D02*
X85821399Y-59060619D01*
X85821399Y-59060619D02*
X84821399Y-59060619D01*
X84821399Y-59060619D02*
X84821399Y-58727286D01*
X84821399Y-58727286D02*
X84869018Y-58632048D01*
X84869018Y-58632048D02*
X84916637Y-58584429D01*
X84916637Y-58584429D02*
X85011875Y-58536810D01*
X85011875Y-58536810D02*
X85107113Y-58536810D01*
X85107113Y-58536810D02*
X85202351Y-58584429D01*
X85202351Y-58584429D02*
X85249970Y-58632048D01*
X85249970Y-58632048D02*
X85297589Y-58727286D01*
X85297589Y-58727286D02*
X85297589Y-59060619D01*
X85154732Y-57298714D02*
X86154732Y-57298714D01*
X85202351Y-57298714D02*
X85154732Y-57203476D01*
X85154732Y-57203476D02*
X85154732Y-57013000D01*
X85154732Y-57013000D02*
X85202351Y-56917762D01*
X85202351Y-56917762D02*
X85249970Y-56870143D01*
X85249970Y-56870143D02*
X85345208Y-56822524D01*
X85345208Y-56822524D02*
X85630922Y-56822524D01*
X85630922Y-56822524D02*
X85726160Y-56870143D01*
X85726160Y-56870143D02*
X85773780Y-56917762D01*
X85773780Y-56917762D02*
X85821399Y-57013000D01*
X85821399Y-57013000D02*
X85821399Y-57203476D01*
X85821399Y-57203476D02*
X85773780Y-57298714D01*
X85821399Y-56251095D02*
X85773780Y-56346333D01*
X85773780Y-56346333D02*
X85726160Y-56393952D01*
X85726160Y-56393952D02*
X85630922Y-56441571D01*
X85630922Y-56441571D02*
X85345208Y-56441571D01*
X85345208Y-56441571D02*
X85249970Y-56393952D01*
X85249970Y-56393952D02*
X85202351Y-56346333D01*
X85202351Y-56346333D02*
X85154732Y-56251095D01*
X85154732Y-56251095D02*
X85154732Y-56108238D01*
X85154732Y-56108238D02*
X85202351Y-56013000D01*
X85202351Y-56013000D02*
X85249970Y-55965381D01*
X85249970Y-55965381D02*
X85345208Y-55917762D01*
X85345208Y-55917762D02*
X85630922Y-55917762D01*
X85630922Y-55917762D02*
X85726160Y-55965381D01*
X85726160Y-55965381D02*
X85773780Y-56013000D01*
X85773780Y-56013000D02*
X85821399Y-56108238D01*
X85821399Y-56108238D02*
X85821399Y-56251095D01*
X85821399Y-55489190D02*
X85154732Y-55489190D01*
X85345208Y-55489190D02*
X85249970Y-55441571D01*
X85249970Y-55441571D02*
X85202351Y-55393952D01*
X85202351Y-55393952D02*
X85154732Y-55298714D01*
X85154732Y-55298714D02*
X85154732Y-55203476D01*
X85154732Y-55012999D02*
X85154732Y-54632047D01*
X84821399Y-54870142D02*
X85678541Y-54870142D01*
X85678541Y-54870142D02*
X85773780Y-54822523D01*
X85773780Y-54822523D02*
X85821399Y-54727285D01*
X85821399Y-54727285D02*
X85821399Y-54632047D01*
X85821399Y-53393951D02*
X85773780Y-53489189D01*
X85773780Y-53489189D02*
X85726160Y-53536808D01*
X85726160Y-53536808D02*
X85630922Y-53584427D01*
X85630922Y-53584427D02*
X85345208Y-53584427D01*
X85345208Y-53584427D02*
X85249970Y-53536808D01*
X85249970Y-53536808D02*
X85202351Y-53489189D01*
X85202351Y-53489189D02*
X85154732Y-53393951D01*
X85154732Y-53393951D02*
X85154732Y-53251094D01*
X85154732Y-53251094D02*
X85202351Y-53155856D01*
X85202351Y-53155856D02*
X85249970Y-53108237D01*
X85249970Y-53108237D02*
X85345208Y-53060618D01*
X85345208Y-53060618D02*
X85630922Y-53060618D01*
X85630922Y-53060618D02*
X85726160Y-53108237D01*
X85726160Y-53108237D02*
X85773780Y-53155856D01*
X85773780Y-53155856D02*
X85821399Y-53251094D01*
X85821399Y-53251094D02*
X85821399Y-53393951D01*
X85154732Y-52632046D02*
X85821399Y-52632046D01*
X85249970Y-52632046D02*
X85202351Y-52584427D01*
X85202351Y-52584427D02*
X85154732Y-52489189D01*
X85154732Y-52489189D02*
X85154732Y-52346332D01*
X85154732Y-52346332D02*
X85202351Y-52251094D01*
X85202351Y-52251094D02*
X85297589Y-52203475D01*
X85297589Y-52203475D02*
X85821399Y-52203475D01*
X85821399Y-50965379D02*
X84821399Y-50965379D01*
X84821399Y-50965379D02*
X85535684Y-50632046D01*
X85535684Y-50632046D02*
X84821399Y-50298713D01*
X84821399Y-50298713D02*
X85821399Y-50298713D01*
X85297589Y-49489189D02*
X85345208Y-49346332D01*
X85345208Y-49346332D02*
X85392827Y-49298713D01*
X85392827Y-49298713D02*
X85488065Y-49251094D01*
X85488065Y-49251094D02*
X85630922Y-49251094D01*
X85630922Y-49251094D02*
X85726160Y-49298713D01*
X85726160Y-49298713D02*
X85773780Y-49346332D01*
X85773780Y-49346332D02*
X85821399Y-49441570D01*
X85821399Y-49441570D02*
X85821399Y-49822522D01*
X85821399Y-49822522D02*
X84821399Y-49822522D01*
X84821399Y-49822522D02*
X84821399Y-49489189D01*
X84821399Y-49489189D02*
X84869018Y-49393951D01*
X84869018Y-49393951D02*
X84916637Y-49346332D01*
X84916637Y-49346332D02*
X85011875Y-49298713D01*
X85011875Y-49298713D02*
X85107113Y-49298713D01*
X85107113Y-49298713D02*
X85202351Y-49346332D01*
X85202351Y-49346332D02*
X85249970Y-49393951D01*
X85249970Y-49393951D02*
X85297589Y-49489189D01*
X85297589Y-49489189D02*
X85297589Y-49822522D01*
X87431343Y-71679668D02*
X86431343Y-71679668D01*
X87431343Y-71203478D02*
X86431343Y-71203478D01*
X86431343Y-71203478D02*
X87431343Y-70632050D01*
X87431343Y-70632050D02*
X86431343Y-70632050D01*
X86764676Y-69536811D02*
X86764676Y-69155859D01*
X86431343Y-69393954D02*
X87288485Y-69393954D01*
X87288485Y-69393954D02*
X87383724Y-69346335D01*
X87383724Y-69346335D02*
X87431343Y-69251097D01*
X87431343Y-69251097D02*
X87431343Y-69155859D01*
X87431343Y-68679668D02*
X87383724Y-68774906D01*
X87383724Y-68774906D02*
X87336104Y-68822525D01*
X87336104Y-68822525D02*
X87240866Y-68870144D01*
X87240866Y-68870144D02*
X86955152Y-68870144D01*
X86955152Y-68870144D02*
X86859914Y-68822525D01*
X86859914Y-68822525D02*
X86812295Y-68774906D01*
X86812295Y-68774906D02*
X86764676Y-68679668D01*
X86764676Y-68679668D02*
X86764676Y-68536811D01*
X86764676Y-68536811D02*
X86812295Y-68441573D01*
X86812295Y-68441573D02*
X86859914Y-68393954D01*
X86859914Y-68393954D02*
X86955152Y-68346335D01*
X86955152Y-68346335D02*
X87240866Y-68346335D01*
X87240866Y-68346335D02*
X87336104Y-68393954D01*
X87336104Y-68393954D02*
X87383724Y-68441573D01*
X87383724Y-68441573D02*
X87431343Y-68536811D01*
X87431343Y-68536811D02*
X87431343Y-68679668D01*
X87431343Y-67155858D02*
X86431343Y-67155858D01*
X86431343Y-67155858D02*
X87145628Y-66822525D01*
X87145628Y-66822525D02*
X86431343Y-66489192D01*
X86431343Y-66489192D02*
X87431343Y-66489192D01*
X86907533Y-65679668D02*
X86955152Y-65536811D01*
X86955152Y-65536811D02*
X87002771Y-65489192D01*
X87002771Y-65489192D02*
X87098009Y-65441573D01*
X87098009Y-65441573D02*
X87240866Y-65441573D01*
X87240866Y-65441573D02*
X87336104Y-65489192D01*
X87336104Y-65489192D02*
X87383724Y-65536811D01*
X87383724Y-65536811D02*
X87431343Y-65632049D01*
X87431343Y-65632049D02*
X87431343Y-66013001D01*
X87431343Y-66013001D02*
X86431343Y-66013001D01*
X86431343Y-66013001D02*
X86431343Y-65679668D01*
X86431343Y-65679668D02*
X86478962Y-65584430D01*
X86478962Y-65584430D02*
X86526581Y-65536811D01*
X86526581Y-65536811D02*
X86621819Y-65489192D01*
X86621819Y-65489192D02*
X86717057Y-65489192D01*
X86717057Y-65489192D02*
X86812295Y-65536811D01*
X86812295Y-65536811D02*
X86859914Y-65584430D01*
X86859914Y-65584430D02*
X86907533Y-65679668D01*
X86907533Y-65679668D02*
X86907533Y-66013001D01*
X87383724Y-64965382D02*
X87431343Y-64965382D01*
X87431343Y-64965382D02*
X87526581Y-65013001D01*
X87526581Y-65013001D02*
X87574200Y-65060620D01*
X86431343Y-63584430D02*
X86431343Y-63393954D01*
X86431343Y-63393954D02*
X86478962Y-63298716D01*
X86478962Y-63298716D02*
X86574200Y-63203478D01*
X86574200Y-63203478D02*
X86764676Y-63155859D01*
X86764676Y-63155859D02*
X87098009Y-63155859D01*
X87098009Y-63155859D02*
X87288485Y-63203478D01*
X87288485Y-63203478D02*
X87383724Y-63298716D01*
X87383724Y-63298716D02*
X87431343Y-63393954D01*
X87431343Y-63393954D02*
X87431343Y-63584430D01*
X87431343Y-63584430D02*
X87383724Y-63679668D01*
X87383724Y-63679668D02*
X87288485Y-63774906D01*
X87288485Y-63774906D02*
X87098009Y-63822525D01*
X87098009Y-63822525D02*
X86764676Y-63822525D01*
X86764676Y-63822525D02*
X86574200Y-63774906D01*
X86574200Y-63774906D02*
X86478962Y-63679668D01*
X86478962Y-63679668D02*
X86431343Y-63584430D01*
X86431343Y-62727287D02*
X87240866Y-62727287D01*
X87240866Y-62727287D02*
X87336104Y-62679668D01*
X87336104Y-62679668D02*
X87383724Y-62632049D01*
X87383724Y-62632049D02*
X87431343Y-62536811D01*
X87431343Y-62536811D02*
X87431343Y-62346335D01*
X87431343Y-62346335D02*
X87383724Y-62251097D01*
X87383724Y-62251097D02*
X87336104Y-62203478D01*
X87336104Y-62203478D02*
X87240866Y-62155859D01*
X87240866Y-62155859D02*
X86431343Y-62155859D01*
X86431343Y-61822525D02*
X86431343Y-61251097D01*
X87431343Y-61536811D02*
X86431343Y-61536811D01*
X86764676Y-60298715D02*
X86764676Y-59917763D01*
X86431343Y-60155858D02*
X87288485Y-60155858D01*
X87288485Y-60155858D02*
X87383724Y-60108239D01*
X87383724Y-60108239D02*
X87431343Y-60013001D01*
X87431343Y-60013001D02*
X87431343Y-59917763D01*
X87431343Y-59441572D02*
X87383724Y-59536810D01*
X87383724Y-59536810D02*
X87336104Y-59584429D01*
X87336104Y-59584429D02*
X87240866Y-59632048D01*
X87240866Y-59632048D02*
X86955152Y-59632048D01*
X86955152Y-59632048D02*
X86859914Y-59584429D01*
X86859914Y-59584429D02*
X86812295Y-59536810D01*
X86812295Y-59536810D02*
X86764676Y-59441572D01*
X86764676Y-59441572D02*
X86764676Y-59298715D01*
X86764676Y-59298715D02*
X86812295Y-59203477D01*
X86812295Y-59203477D02*
X86859914Y-59155858D01*
X86859914Y-59155858D02*
X86955152Y-59108239D01*
X86955152Y-59108239D02*
X87240866Y-59108239D01*
X87240866Y-59108239D02*
X87336104Y-59155858D01*
X87336104Y-59155858D02*
X87383724Y-59203477D01*
X87383724Y-59203477D02*
X87431343Y-59298715D01*
X87431343Y-59298715D02*
X87431343Y-59441572D01*
X87383724Y-57489191D02*
X87431343Y-57584429D01*
X87431343Y-57584429D02*
X87431343Y-57774905D01*
X87431343Y-57774905D02*
X87383724Y-57870143D01*
X87383724Y-57870143D02*
X87336104Y-57917762D01*
X87336104Y-57917762D02*
X87240866Y-57965381D01*
X87240866Y-57965381D02*
X86955152Y-57965381D01*
X86955152Y-57965381D02*
X86859914Y-57917762D01*
X86859914Y-57917762D02*
X86812295Y-57870143D01*
X86812295Y-57870143D02*
X86764676Y-57774905D01*
X86764676Y-57774905D02*
X86764676Y-57584429D01*
X86764676Y-57584429D02*
X86812295Y-57489191D01*
X87431343Y-57060619D02*
X86431343Y-57060619D01*
X87431343Y-56632048D02*
X86907533Y-56632048D01*
X86907533Y-56632048D02*
X86812295Y-56679667D01*
X86812295Y-56679667D02*
X86764676Y-56774905D01*
X86764676Y-56774905D02*
X86764676Y-56917762D01*
X86764676Y-56917762D02*
X86812295Y-57013000D01*
X86812295Y-57013000D02*
X86859914Y-57060619D01*
X87431343Y-55727286D02*
X86907533Y-55727286D01*
X86907533Y-55727286D02*
X86812295Y-55774905D01*
X86812295Y-55774905D02*
X86764676Y-55870143D01*
X86764676Y-55870143D02*
X86764676Y-56060619D01*
X86764676Y-56060619D02*
X86812295Y-56155857D01*
X87383724Y-55727286D02*
X87431343Y-55822524D01*
X87431343Y-55822524D02*
X87431343Y-56060619D01*
X87431343Y-56060619D02*
X87383724Y-56155857D01*
X87383724Y-56155857D02*
X87288485Y-56203476D01*
X87288485Y-56203476D02*
X87193247Y-56203476D01*
X87193247Y-56203476D02*
X87098009Y-56155857D01*
X87098009Y-56155857D02*
X87050390Y-56060619D01*
X87050390Y-56060619D02*
X87050390Y-55822524D01*
X87050390Y-55822524D02*
X87002771Y-55727286D01*
X87383724Y-55298714D02*
X87431343Y-55203476D01*
X87431343Y-55203476D02*
X87431343Y-55013000D01*
X87431343Y-55013000D02*
X87383724Y-54917762D01*
X87383724Y-54917762D02*
X87288485Y-54870143D01*
X87288485Y-54870143D02*
X87240866Y-54870143D01*
X87240866Y-54870143D02*
X87145628Y-54917762D01*
X87145628Y-54917762D02*
X87098009Y-55013000D01*
X87098009Y-55013000D02*
X87098009Y-55155857D01*
X87098009Y-55155857D02*
X87050390Y-55251095D01*
X87050390Y-55251095D02*
X86955152Y-55298714D01*
X86955152Y-55298714D02*
X86907533Y-55298714D01*
X86907533Y-55298714D02*
X86812295Y-55251095D01*
X86812295Y-55251095D02*
X86764676Y-55155857D01*
X86764676Y-55155857D02*
X86764676Y-55013000D01*
X86764676Y-55013000D02*
X86812295Y-54917762D01*
X87383724Y-54489190D02*
X87431343Y-54393952D01*
X87431343Y-54393952D02*
X87431343Y-54203476D01*
X87431343Y-54203476D02*
X87383724Y-54108238D01*
X87383724Y-54108238D02*
X87288485Y-54060619D01*
X87288485Y-54060619D02*
X87240866Y-54060619D01*
X87240866Y-54060619D02*
X87145628Y-54108238D01*
X87145628Y-54108238D02*
X87098009Y-54203476D01*
X87098009Y-54203476D02*
X87098009Y-54346333D01*
X87098009Y-54346333D02*
X87050390Y-54441571D01*
X87050390Y-54441571D02*
X86955152Y-54489190D01*
X86955152Y-54489190D02*
X86907533Y-54489190D01*
X86907533Y-54489190D02*
X86812295Y-54441571D01*
X86812295Y-54441571D02*
X86764676Y-54346333D01*
X86764676Y-54346333D02*
X86764676Y-54203476D01*
X86764676Y-54203476D02*
X86812295Y-54108238D01*
X87431343Y-53632047D02*
X86764676Y-53632047D01*
X86431343Y-53632047D02*
X86478962Y-53679666D01*
X86478962Y-53679666D02*
X86526581Y-53632047D01*
X86526581Y-53632047D02*
X86478962Y-53584428D01*
X86478962Y-53584428D02*
X86431343Y-53632047D01*
X86431343Y-53632047D02*
X86526581Y-53632047D01*
X87383724Y-53203476D02*
X87431343Y-53108238D01*
X87431343Y-53108238D02*
X87431343Y-52917762D01*
X87431343Y-52917762D02*
X87383724Y-52822524D01*
X87383724Y-52822524D02*
X87288485Y-52774905D01*
X87288485Y-52774905D02*
X87240866Y-52774905D01*
X87240866Y-52774905D02*
X87145628Y-52822524D01*
X87145628Y-52822524D02*
X87098009Y-52917762D01*
X87098009Y-52917762D02*
X87098009Y-53060619D01*
X87098009Y-53060619D02*
X87050390Y-53155857D01*
X87050390Y-53155857D02*
X86955152Y-53203476D01*
X86955152Y-53203476D02*
X86907533Y-53203476D01*
X86907533Y-53203476D02*
X86812295Y-53155857D01*
X86812295Y-53155857D02*
X86764676Y-53060619D01*
X86764676Y-53060619D02*
X86764676Y-52917762D01*
X86764676Y-52917762D02*
X86812295Y-52822524D01*
X87812295Y-51298714D02*
X87764676Y-51346333D01*
X87764676Y-51346333D02*
X87621819Y-51441571D01*
X87621819Y-51441571D02*
X87526581Y-51489190D01*
X87526581Y-51489190D02*
X87383724Y-51536809D01*
X87383724Y-51536809D02*
X87145628Y-51584428D01*
X87145628Y-51584428D02*
X86955152Y-51584428D01*
X86955152Y-51584428D02*
X86717057Y-51536809D01*
X86717057Y-51536809D02*
X86574200Y-51489190D01*
X86574200Y-51489190D02*
X86478962Y-51441571D01*
X86478962Y-51441571D02*
X86336104Y-51346333D01*
X86336104Y-51346333D02*
X86288485Y-51298714D01*
X87431343Y-50774904D02*
X87383724Y-50870142D01*
X87383724Y-50870142D02*
X87336104Y-50917761D01*
X87336104Y-50917761D02*
X87240866Y-50965380D01*
X87240866Y-50965380D02*
X86955152Y-50965380D01*
X86955152Y-50965380D02*
X86859914Y-50917761D01*
X86859914Y-50917761D02*
X86812295Y-50870142D01*
X86812295Y-50870142D02*
X86764676Y-50774904D01*
X86764676Y-50774904D02*
X86764676Y-50632047D01*
X86764676Y-50632047D02*
X86812295Y-50536809D01*
X86812295Y-50536809D02*
X86859914Y-50489190D01*
X86859914Y-50489190D02*
X86955152Y-50441571D01*
X86955152Y-50441571D02*
X87240866Y-50441571D01*
X87240866Y-50441571D02*
X87336104Y-50489190D01*
X87336104Y-50489190D02*
X87383724Y-50536809D01*
X87383724Y-50536809D02*
X87431343Y-50632047D01*
X87431343Y-50632047D02*
X87431343Y-50774904D01*
X86764676Y-50012999D02*
X87764676Y-50012999D01*
X86812295Y-50012999D02*
X86764676Y-49917761D01*
X86764676Y-49917761D02*
X86764676Y-49727285D01*
X86764676Y-49727285D02*
X86812295Y-49632047D01*
X86812295Y-49632047D02*
X86859914Y-49584428D01*
X86859914Y-49584428D02*
X86955152Y-49536809D01*
X86955152Y-49536809D02*
X87240866Y-49536809D01*
X87240866Y-49536809D02*
X87336104Y-49584428D01*
X87336104Y-49584428D02*
X87383724Y-49632047D01*
X87383724Y-49632047D02*
X87431343Y-49727285D01*
X87431343Y-49727285D02*
X87431343Y-49917761D01*
X87431343Y-49917761D02*
X87383724Y-50012999D01*
X86764676Y-49251094D02*
X86764676Y-48870142D01*
X86431343Y-49108237D02*
X87288485Y-49108237D01*
X87288485Y-49108237D02*
X87383724Y-49060618D01*
X87383724Y-49060618D02*
X87431343Y-48965380D01*
X87431343Y-48965380D02*
X87431343Y-48870142D01*
X87812295Y-48632046D02*
X87764676Y-48584427D01*
X87764676Y-48584427D02*
X87621819Y-48489189D01*
X87621819Y-48489189D02*
X87526581Y-48441570D01*
X87526581Y-48441570D02*
X87383724Y-48393951D01*
X87383724Y-48393951D02*
X87145628Y-48346332D01*
X87145628Y-48346332D02*
X86955152Y-48346332D01*
X86955152Y-48346332D02*
X86717057Y-48393951D01*
X86717057Y-48393951D02*
X86574200Y-48441570D01*
X86574200Y-48441570D02*
X86478962Y-48489189D01*
X86478962Y-48489189D02*
X86336104Y-48584427D01*
X86336104Y-48584427D02*
X86288485Y-48632046D01*
X89041287Y-71108240D02*
X88565096Y-71441573D01*
X89041287Y-71679668D02*
X88041287Y-71679668D01*
X88041287Y-71679668D02*
X88041287Y-71298716D01*
X88041287Y-71298716D02*
X88088906Y-71203478D01*
X88088906Y-71203478D02*
X88136525Y-71155859D01*
X88136525Y-71155859D02*
X88231763Y-71108240D01*
X88231763Y-71108240D02*
X88374620Y-71108240D01*
X88374620Y-71108240D02*
X88469858Y-71155859D01*
X88469858Y-71155859D02*
X88517477Y-71203478D01*
X88517477Y-71203478D02*
X88565096Y-71298716D01*
X88565096Y-71298716D02*
X88565096Y-71679668D01*
X89041287Y-70155859D02*
X89041287Y-70727287D01*
X89041287Y-70441573D02*
X88041287Y-70441573D01*
X88041287Y-70441573D02*
X88184144Y-70536811D01*
X88184144Y-70536811D02*
X88279382Y-70632049D01*
X88279382Y-70632049D02*
X88327001Y-70727287D01*
X89041287Y-68155858D02*
X89041287Y-68203478D01*
X89041287Y-68203478D02*
X88993668Y-68298716D01*
X88993668Y-68298716D02*
X88850810Y-68441573D01*
X88850810Y-68441573D02*
X88565096Y-68679668D01*
X88565096Y-68679668D02*
X88422239Y-68774906D01*
X88422239Y-68774906D02*
X88279382Y-68822525D01*
X88279382Y-68822525D02*
X88184144Y-68822525D01*
X88184144Y-68822525D02*
X88088906Y-68774906D01*
X88088906Y-68774906D02*
X88041287Y-68679668D01*
X88041287Y-68679668D02*
X88041287Y-68632049D01*
X88041287Y-68632049D02*
X88088906Y-68536811D01*
X88088906Y-68536811D02*
X88184144Y-68489192D01*
X88184144Y-68489192D02*
X88231763Y-68489192D01*
X88231763Y-68489192D02*
X88327001Y-68536811D01*
X88327001Y-68536811D02*
X88374620Y-68584430D01*
X88374620Y-68584430D02*
X88565096Y-68870144D01*
X88565096Y-68870144D02*
X88612715Y-68917763D01*
X88612715Y-68917763D02*
X88707953Y-68965382D01*
X88707953Y-68965382D02*
X88850810Y-68965382D01*
X88850810Y-68965382D02*
X88946048Y-68917763D01*
X88946048Y-68917763D02*
X88993668Y-68870144D01*
X88993668Y-68870144D02*
X89041287Y-68774906D01*
X89041287Y-68774906D02*
X89041287Y-68632049D01*
X89041287Y-68632049D02*
X88993668Y-68536811D01*
X88993668Y-68536811D02*
X88946048Y-68489192D01*
X88946048Y-68489192D02*
X88755572Y-68346335D01*
X88755572Y-68346335D02*
X88612715Y-68298716D01*
X88612715Y-68298716D02*
X88517477Y-68298716D01*
X89041287Y-66393954D02*
X88565096Y-66727287D01*
X89041287Y-66965382D02*
X88041287Y-66965382D01*
X88041287Y-66965382D02*
X88041287Y-66584430D01*
X88041287Y-66584430D02*
X88088906Y-66489192D01*
X88088906Y-66489192D02*
X88136525Y-66441573D01*
X88136525Y-66441573D02*
X88231763Y-66393954D01*
X88231763Y-66393954D02*
X88374620Y-66393954D01*
X88374620Y-66393954D02*
X88469858Y-66441573D01*
X88469858Y-66441573D02*
X88517477Y-66489192D01*
X88517477Y-66489192D02*
X88565096Y-66584430D01*
X88565096Y-66584430D02*
X88565096Y-66965382D01*
X88136525Y-66013001D02*
X88088906Y-65965382D01*
X88088906Y-65965382D02*
X88041287Y-65870144D01*
X88041287Y-65870144D02*
X88041287Y-65632049D01*
X88041287Y-65632049D02*
X88088906Y-65536811D01*
X88088906Y-65536811D02*
X88136525Y-65489192D01*
X88136525Y-65489192D02*
X88231763Y-65441573D01*
X88231763Y-65441573D02*
X88327001Y-65441573D01*
X88327001Y-65441573D02*
X88469858Y-65489192D01*
X88469858Y-65489192D02*
X89041287Y-66060620D01*
X89041287Y-66060620D02*
X89041287Y-65441573D01*
X88517477Y-64251096D02*
X88517477Y-63489192D01*
X88803191Y-63489192D02*
X88803191Y-64251096D01*
X88136525Y-62298715D02*
X88088906Y-62251096D01*
X88088906Y-62251096D02*
X88041287Y-62155858D01*
X88041287Y-62155858D02*
X88041287Y-61917763D01*
X88041287Y-61917763D02*
X88088906Y-61822525D01*
X88088906Y-61822525D02*
X88136525Y-61774906D01*
X88136525Y-61774906D02*
X88231763Y-61727287D01*
X88231763Y-61727287D02*
X88327001Y-61727287D01*
X88327001Y-61727287D02*
X88469858Y-61774906D01*
X88469858Y-61774906D02*
X89041287Y-62346334D01*
X89041287Y-62346334D02*
X89041287Y-61727287D01*
X88136525Y-61346334D02*
X88088906Y-61298715D01*
X88088906Y-61298715D02*
X88041287Y-61203477D01*
X88041287Y-61203477D02*
X88041287Y-60965382D01*
X88041287Y-60965382D02*
X88088906Y-60870144D01*
X88088906Y-60870144D02*
X88136525Y-60822525D01*
X88136525Y-60822525D02*
X88231763Y-60774906D01*
X88231763Y-60774906D02*
X88327001Y-60774906D01*
X88327001Y-60774906D02*
X88469858Y-60822525D01*
X88469858Y-60822525D02*
X89041287Y-61393953D01*
X89041287Y-61393953D02*
X89041287Y-60774906D01*
X88041287Y-60155858D02*
X88041287Y-60060620D01*
X88041287Y-60060620D02*
X88088906Y-59965382D01*
X88088906Y-59965382D02*
X88136525Y-59917763D01*
X88136525Y-59917763D02*
X88231763Y-59870144D01*
X88231763Y-59870144D02*
X88422239Y-59822525D01*
X88422239Y-59822525D02*
X88660334Y-59822525D01*
X88660334Y-59822525D02*
X88850810Y-59870144D01*
X88850810Y-59870144D02*
X88946048Y-59917763D01*
X88946048Y-59917763D02*
X88993668Y-59965382D01*
X88993668Y-59965382D02*
X89041287Y-60060620D01*
X89041287Y-60060620D02*
X89041287Y-60155858D01*
X89041287Y-60155858D02*
X88993668Y-60251096D01*
X88993668Y-60251096D02*
X88946048Y-60298715D01*
X88946048Y-60298715D02*
X88850810Y-60346334D01*
X88850810Y-60346334D02*
X88660334Y-60393953D01*
X88660334Y-60393953D02*
X88422239Y-60393953D01*
X88422239Y-60393953D02*
X88231763Y-60346334D01*
X88231763Y-60346334D02*
X88136525Y-60298715D01*
X88136525Y-60298715D02*
X88088906Y-60251096D01*
X88088906Y-60251096D02*
X88041287Y-60155858D01*
X89041287Y-58822525D02*
X88565096Y-59155858D01*
X89041287Y-59393953D02*
X88041287Y-59393953D01*
X88041287Y-59393953D02*
X88041287Y-59013001D01*
X88041287Y-59013001D02*
X88088906Y-58917763D01*
X88088906Y-58917763D02*
X88136525Y-58870144D01*
X88136525Y-58870144D02*
X88231763Y-58822525D01*
X88231763Y-58822525D02*
X88374620Y-58822525D01*
X88374620Y-58822525D02*
X88469858Y-58870144D01*
X88469858Y-58870144D02*
X88517477Y-58917763D01*
X88517477Y-58917763D02*
X88565096Y-59013001D01*
X88565096Y-59013001D02*
X88565096Y-59393953D01*
X87993668Y-57679668D02*
X89279382Y-58536810D01*
X88041287Y-57441572D02*
X88041287Y-56822525D01*
X88041287Y-56822525D02*
X88422239Y-57155858D01*
X88422239Y-57155858D02*
X88422239Y-57013001D01*
X88422239Y-57013001D02*
X88469858Y-56917763D01*
X88469858Y-56917763D02*
X88517477Y-56870144D01*
X88517477Y-56870144D02*
X88612715Y-56822525D01*
X88612715Y-56822525D02*
X88850810Y-56822525D01*
X88850810Y-56822525D02*
X88946048Y-56870144D01*
X88946048Y-56870144D02*
X88993668Y-56917763D01*
X88993668Y-56917763D02*
X89041287Y-57013001D01*
X89041287Y-57013001D02*
X89041287Y-57298715D01*
X89041287Y-57298715D02*
X88993668Y-57393953D01*
X88993668Y-57393953D02*
X88946048Y-57441572D01*
X88041287Y-56489191D02*
X88041287Y-55870144D01*
X88041287Y-55870144D02*
X88422239Y-56203477D01*
X88422239Y-56203477D02*
X88422239Y-56060620D01*
X88422239Y-56060620D02*
X88469858Y-55965382D01*
X88469858Y-55965382D02*
X88517477Y-55917763D01*
X88517477Y-55917763D02*
X88612715Y-55870144D01*
X88612715Y-55870144D02*
X88850810Y-55870144D01*
X88850810Y-55870144D02*
X88946048Y-55917763D01*
X88946048Y-55917763D02*
X88993668Y-55965382D01*
X88993668Y-55965382D02*
X89041287Y-56060620D01*
X89041287Y-56060620D02*
X89041287Y-56346334D01*
X89041287Y-56346334D02*
X88993668Y-56441572D01*
X88993668Y-56441572D02*
X88946048Y-56489191D01*
X88041287Y-55251096D02*
X88041287Y-55155858D01*
X88041287Y-55155858D02*
X88088906Y-55060620D01*
X88088906Y-55060620D02*
X88136525Y-55013001D01*
X88136525Y-55013001D02*
X88231763Y-54965382D01*
X88231763Y-54965382D02*
X88422239Y-54917763D01*
X88422239Y-54917763D02*
X88660334Y-54917763D01*
X88660334Y-54917763D02*
X88850810Y-54965382D01*
X88850810Y-54965382D02*
X88946048Y-55013001D01*
X88946048Y-55013001D02*
X88993668Y-55060620D01*
X88993668Y-55060620D02*
X89041287Y-55155858D01*
X89041287Y-55155858D02*
X89041287Y-55251096D01*
X89041287Y-55251096D02*
X88993668Y-55346334D01*
X88993668Y-55346334D02*
X88946048Y-55393953D01*
X88946048Y-55393953D02*
X88850810Y-55441572D01*
X88850810Y-55441572D02*
X88660334Y-55489191D01*
X88660334Y-55489191D02*
X88422239Y-55489191D01*
X88422239Y-55489191D02*
X88231763Y-55441572D01*
X88231763Y-55441572D02*
X88136525Y-55393953D01*
X88136525Y-55393953D02*
X88088906Y-55346334D01*
X88088906Y-55346334D02*
X88041287Y-55251096D01*
X89041287Y-53917763D02*
X88565096Y-54251096D01*
X89041287Y-54489191D02*
X88041287Y-54489191D01*
X88041287Y-54489191D02*
X88041287Y-54108239D01*
X88041287Y-54108239D02*
X88088906Y-54013001D01*
X88088906Y-54013001D02*
X88136525Y-53965382D01*
X88136525Y-53965382D02*
X88231763Y-53917763D01*
X88231763Y-53917763D02*
X88374620Y-53917763D01*
X88374620Y-53917763D02*
X88469858Y-53965382D01*
X88469858Y-53965382D02*
X88517477Y-54013001D01*
X88517477Y-54013001D02*
X88565096Y-54108239D01*
X88565096Y-54108239D02*
X88565096Y-54489191D01*
X90651231Y-71108240D02*
X90175040Y-71441573D01*
X90651231Y-71679668D02*
X89651231Y-71679668D01*
X89651231Y-71679668D02*
X89651231Y-71298716D01*
X89651231Y-71298716D02*
X89698850Y-71203478D01*
X89698850Y-71203478D02*
X89746469Y-71155859D01*
X89746469Y-71155859D02*
X89841707Y-71108240D01*
X89841707Y-71108240D02*
X89984564Y-71108240D01*
X89984564Y-71108240D02*
X90079802Y-71155859D01*
X90079802Y-71155859D02*
X90127421Y-71203478D01*
X90127421Y-71203478D02*
X90175040Y-71298716D01*
X90175040Y-71298716D02*
X90175040Y-71679668D01*
X89651231Y-70774906D02*
X89651231Y-70155859D01*
X89651231Y-70155859D02*
X90032183Y-70489192D01*
X90032183Y-70489192D02*
X90032183Y-70346335D01*
X90032183Y-70346335D02*
X90079802Y-70251097D01*
X90079802Y-70251097D02*
X90127421Y-70203478D01*
X90127421Y-70203478D02*
X90222659Y-70155859D01*
X90222659Y-70155859D02*
X90460754Y-70155859D01*
X90460754Y-70155859D02*
X90555992Y-70203478D01*
X90555992Y-70203478D02*
X90603612Y-70251097D01*
X90603612Y-70251097D02*
X90651231Y-70346335D01*
X90651231Y-70346335D02*
X90651231Y-70632049D01*
X90651231Y-70632049D02*
X90603612Y-70727287D01*
X90603612Y-70727287D02*
X90555992Y-70774906D01*
X90127421Y-68965382D02*
X90127421Y-68203478D01*
X90413135Y-68203478D02*
X90413135Y-68965382D01*
X90651231Y-66441573D02*
X90651231Y-67013001D01*
X90651231Y-66727287D02*
X89651231Y-66727287D01*
X89651231Y-66727287D02*
X89794088Y-66822525D01*
X89794088Y-66822525D02*
X89889326Y-66917763D01*
X89889326Y-66917763D02*
X89936945Y-67013001D01*
X89651231Y-65822525D02*
X89651231Y-65727287D01*
X89651231Y-65727287D02*
X89698850Y-65632049D01*
X89698850Y-65632049D02*
X89746469Y-65584430D01*
X89746469Y-65584430D02*
X89841707Y-65536811D01*
X89841707Y-65536811D02*
X90032183Y-65489192D01*
X90032183Y-65489192D02*
X90270278Y-65489192D01*
X90270278Y-65489192D02*
X90460754Y-65536811D01*
X90460754Y-65536811D02*
X90555992Y-65584430D01*
X90555992Y-65584430D02*
X90603612Y-65632049D01*
X90603612Y-65632049D02*
X90651231Y-65727287D01*
X90651231Y-65727287D02*
X90651231Y-65822525D01*
X90651231Y-65822525D02*
X90603612Y-65917763D01*
X90603612Y-65917763D02*
X90555992Y-65965382D01*
X90555992Y-65965382D02*
X90460754Y-66013001D01*
X90460754Y-66013001D02*
X90270278Y-66060620D01*
X90270278Y-66060620D02*
X90032183Y-66060620D01*
X90032183Y-66060620D02*
X89841707Y-66013001D01*
X89841707Y-66013001D02*
X89746469Y-65965382D01*
X89746469Y-65965382D02*
X89698850Y-65917763D01*
X89698850Y-65917763D02*
X89651231Y-65822525D01*
X89651231Y-64870144D02*
X89651231Y-64774906D01*
X89651231Y-64774906D02*
X89698850Y-64679668D01*
X89698850Y-64679668D02*
X89746469Y-64632049D01*
X89746469Y-64632049D02*
X89841707Y-64584430D01*
X89841707Y-64584430D02*
X90032183Y-64536811D01*
X90032183Y-64536811D02*
X90270278Y-64536811D01*
X90270278Y-64536811D02*
X90460754Y-64584430D01*
X90460754Y-64584430D02*
X90555992Y-64632049D01*
X90555992Y-64632049D02*
X90603612Y-64679668D01*
X90603612Y-64679668D02*
X90651231Y-64774906D01*
X90651231Y-64774906D02*
X90651231Y-64870144D01*
X90651231Y-64870144D02*
X90603612Y-64965382D01*
X90603612Y-64965382D02*
X90555992Y-65013001D01*
X90555992Y-65013001D02*
X90460754Y-65060620D01*
X90460754Y-65060620D02*
X90270278Y-65108239D01*
X90270278Y-65108239D02*
X90032183Y-65108239D01*
X90032183Y-65108239D02*
X89841707Y-65060620D01*
X89841707Y-65060620D02*
X89746469Y-65013001D01*
X89746469Y-65013001D02*
X89698850Y-64965382D01*
X89698850Y-64965382D02*
X89651231Y-64870144D01*
X90651231Y-64108239D02*
X89651231Y-64108239D01*
X90270278Y-64013001D02*
X90651231Y-63727287D01*
X89984564Y-63727287D02*
X90365516Y-64108239D01*
X92356413Y-71013002D02*
X92308794Y-71108240D01*
X92308794Y-71108240D02*
X92213556Y-71203478D01*
X92213556Y-71203478D02*
X92070698Y-71346335D01*
X92070698Y-71346335D02*
X92023079Y-71441573D01*
X92023079Y-71441573D02*
X92023079Y-71536811D01*
X92261175Y-71489192D02*
X92213556Y-71584430D01*
X92213556Y-71584430D02*
X92118317Y-71679668D01*
X92118317Y-71679668D02*
X91927841Y-71727287D01*
X91927841Y-71727287D02*
X91594508Y-71727287D01*
X91594508Y-71727287D02*
X91404032Y-71679668D01*
X91404032Y-71679668D02*
X91308794Y-71584430D01*
X91308794Y-71584430D02*
X91261175Y-71489192D01*
X91261175Y-71489192D02*
X91261175Y-71298716D01*
X91261175Y-71298716D02*
X91308794Y-71203478D01*
X91308794Y-71203478D02*
X91404032Y-71108240D01*
X91404032Y-71108240D02*
X91594508Y-71060621D01*
X91594508Y-71060621D02*
X91927841Y-71060621D01*
X91927841Y-71060621D02*
X92118317Y-71108240D01*
X92118317Y-71108240D02*
X92213556Y-71203478D01*
X92213556Y-71203478D02*
X92261175Y-71298716D01*
X92261175Y-71298716D02*
X92261175Y-71489192D01*
X92165936Y-70489192D02*
X92213556Y-70441573D01*
X92213556Y-70441573D02*
X92261175Y-70489192D01*
X92261175Y-70489192D02*
X92213556Y-70536811D01*
X92213556Y-70536811D02*
X92165936Y-70489192D01*
X92165936Y-70489192D02*
X92261175Y-70489192D01*
X91308794Y-70679668D02*
X91261175Y-70584430D01*
X91261175Y-70584430D02*
X91261175Y-70346335D01*
X91261175Y-70346335D02*
X91308794Y-70251097D01*
X91308794Y-70251097D02*
X91404032Y-70203478D01*
X91404032Y-70203478D02*
X91499270Y-70203478D01*
X91499270Y-70203478D02*
X91594508Y-70251097D01*
X91594508Y-70251097D02*
X91642127Y-70298716D01*
X91642127Y-70298716D02*
X91689746Y-70393954D01*
X91689746Y-70393954D02*
X91737365Y-70441573D01*
X91737365Y-70441573D02*
X91832603Y-70489192D01*
X91832603Y-70489192D02*
X91880222Y-70489192D01*
X91737365Y-69013001D02*
X91737365Y-68251097D01*
X92023079Y-68251097D02*
X92023079Y-69013001D01*
X91356413Y-67060620D02*
X91308794Y-67013001D01*
X91308794Y-67013001D02*
X91261175Y-66917763D01*
X91261175Y-66917763D02*
X91261175Y-66679668D01*
X91261175Y-66679668D02*
X91308794Y-66584430D01*
X91308794Y-66584430D02*
X91356413Y-66536811D01*
X91356413Y-66536811D02*
X91451651Y-66489192D01*
X91451651Y-66489192D02*
X91546889Y-66489192D01*
X91546889Y-66489192D02*
X91689746Y-66536811D01*
X91689746Y-66536811D02*
X92261175Y-67108239D01*
X92261175Y-67108239D02*
X92261175Y-66489192D01*
X92261175Y-66060620D02*
X91261175Y-66060620D01*
X91261175Y-66060620D02*
X92261175Y-65489192D01*
X92261175Y-65489192D02*
X91261175Y-65489192D01*
X91261175Y-65108239D02*
X91261175Y-64489192D01*
X91261175Y-64489192D02*
X91642127Y-64822525D01*
X91642127Y-64822525D02*
X91642127Y-64679668D01*
X91642127Y-64679668D02*
X91689746Y-64584430D01*
X91689746Y-64584430D02*
X91737365Y-64536811D01*
X91737365Y-64536811D02*
X91832603Y-64489192D01*
X91832603Y-64489192D02*
X92070698Y-64489192D01*
X92070698Y-64489192D02*
X92165936Y-64536811D01*
X92165936Y-64536811D02*
X92213556Y-64584430D01*
X92213556Y-64584430D02*
X92261175Y-64679668D01*
X92261175Y-64679668D02*
X92261175Y-64965382D01*
X92261175Y-64965382D02*
X92213556Y-65060620D01*
X92213556Y-65060620D02*
X92165936Y-65108239D01*
X92261175Y-64013001D02*
X92261175Y-63822525D01*
X92261175Y-63822525D02*
X92213556Y-63727287D01*
X92213556Y-63727287D02*
X92165936Y-63679668D01*
X92165936Y-63679668D02*
X92023079Y-63584430D01*
X92023079Y-63584430D02*
X91832603Y-63536811D01*
X91832603Y-63536811D02*
X91451651Y-63536811D01*
X91451651Y-63536811D02*
X91356413Y-63584430D01*
X91356413Y-63584430D02*
X91308794Y-63632049D01*
X91308794Y-63632049D02*
X91261175Y-63727287D01*
X91261175Y-63727287D02*
X91261175Y-63917763D01*
X91261175Y-63917763D02*
X91308794Y-64013001D01*
X91308794Y-64013001D02*
X91356413Y-64060620D01*
X91356413Y-64060620D02*
X91451651Y-64108239D01*
X91451651Y-64108239D02*
X91689746Y-64108239D01*
X91689746Y-64108239D02*
X91784984Y-64060620D01*
X91784984Y-64060620D02*
X91832603Y-64013001D01*
X91832603Y-64013001D02*
X91880222Y-63917763D01*
X91880222Y-63917763D02*
X91880222Y-63727287D01*
X91880222Y-63727287D02*
X91832603Y-63632049D01*
X91832603Y-63632049D02*
X91784984Y-63584430D01*
X91784984Y-63584430D02*
X91689746Y-63536811D01*
X91261175Y-62917763D02*
X91261175Y-62822525D01*
X91261175Y-62822525D02*
X91308794Y-62727287D01*
X91308794Y-62727287D02*
X91356413Y-62679668D01*
X91356413Y-62679668D02*
X91451651Y-62632049D01*
X91451651Y-62632049D02*
X91642127Y-62584430D01*
X91642127Y-62584430D02*
X91880222Y-62584430D01*
X91880222Y-62584430D02*
X92070698Y-62632049D01*
X92070698Y-62632049D02*
X92165936Y-62679668D01*
X92165936Y-62679668D02*
X92213556Y-62727287D01*
X92213556Y-62727287D02*
X92261175Y-62822525D01*
X92261175Y-62822525D02*
X92261175Y-62917763D01*
X92261175Y-62917763D02*
X92213556Y-63013001D01*
X92213556Y-63013001D02*
X92165936Y-63060620D01*
X92165936Y-63060620D02*
X92070698Y-63108239D01*
X92070698Y-63108239D02*
X91880222Y-63155858D01*
X91880222Y-63155858D02*
X91642127Y-63155858D01*
X91642127Y-63155858D02*
X91451651Y-63108239D01*
X91451651Y-63108239D02*
X91356413Y-63060620D01*
X91356413Y-63060620D02*
X91308794Y-63013001D01*
X91308794Y-63013001D02*
X91261175Y-62917763D01*
X91594508Y-61727287D02*
X92261175Y-61727287D01*
X91213556Y-61965382D02*
X91927841Y-62203477D01*
X91927841Y-62203477D02*
X91927841Y-61584430D01*
X91213556Y-60489192D02*
X92499270Y-61346334D01*
X91356413Y-60203477D02*
X91308794Y-60155858D01*
X91308794Y-60155858D02*
X91261175Y-60060620D01*
X91261175Y-60060620D02*
X91261175Y-59822525D01*
X91261175Y-59822525D02*
X91308794Y-59727287D01*
X91308794Y-59727287D02*
X91356413Y-59679668D01*
X91356413Y-59679668D02*
X91451651Y-59632049D01*
X91451651Y-59632049D02*
X91546889Y-59632049D01*
X91546889Y-59632049D02*
X91689746Y-59679668D01*
X91689746Y-59679668D02*
X92261175Y-60251096D01*
X92261175Y-60251096D02*
X92261175Y-59632049D01*
X92261175Y-59203477D02*
X91261175Y-59203477D01*
X91261175Y-59203477D02*
X92261175Y-58632049D01*
X92261175Y-58632049D02*
X91261175Y-58632049D01*
X91356413Y-58203477D02*
X91308794Y-58155858D01*
X91308794Y-58155858D02*
X91261175Y-58060620D01*
X91261175Y-58060620D02*
X91261175Y-57822525D01*
X91261175Y-57822525D02*
X91308794Y-57727287D01*
X91308794Y-57727287D02*
X91356413Y-57679668D01*
X91356413Y-57679668D02*
X91451651Y-57632049D01*
X91451651Y-57632049D02*
X91546889Y-57632049D01*
X91546889Y-57632049D02*
X91689746Y-57679668D01*
X91689746Y-57679668D02*
X92261175Y-58251096D01*
X92261175Y-58251096D02*
X92261175Y-57632049D01*
X91356413Y-57251096D02*
X91308794Y-57203477D01*
X91308794Y-57203477D02*
X91261175Y-57108239D01*
X91261175Y-57108239D02*
X91261175Y-56870144D01*
X91261175Y-56870144D02*
X91308794Y-56774906D01*
X91308794Y-56774906D02*
X91356413Y-56727287D01*
X91356413Y-56727287D02*
X91451651Y-56679668D01*
X91451651Y-56679668D02*
X91546889Y-56679668D01*
X91546889Y-56679668D02*
X91689746Y-56727287D01*
X91689746Y-56727287D02*
X92261175Y-57298715D01*
X92261175Y-57298715D02*
X92261175Y-56679668D01*
X91356413Y-56298715D02*
X91308794Y-56251096D01*
X91308794Y-56251096D02*
X91261175Y-56155858D01*
X91261175Y-56155858D02*
X91261175Y-55917763D01*
X91261175Y-55917763D02*
X91308794Y-55822525D01*
X91308794Y-55822525D02*
X91356413Y-55774906D01*
X91356413Y-55774906D02*
X91451651Y-55727287D01*
X91451651Y-55727287D02*
X91546889Y-55727287D01*
X91546889Y-55727287D02*
X91689746Y-55774906D01*
X91689746Y-55774906D02*
X92261175Y-56346334D01*
X92261175Y-56346334D02*
X92261175Y-55727287D01*
X91356413Y-55346334D02*
X91308794Y-55298715D01*
X91308794Y-55298715D02*
X91261175Y-55203477D01*
X91261175Y-55203477D02*
X91261175Y-54965382D01*
X91261175Y-54965382D02*
X91308794Y-54870144D01*
X91308794Y-54870144D02*
X91356413Y-54822525D01*
X91356413Y-54822525D02*
X91451651Y-54774906D01*
X91451651Y-54774906D02*
X91546889Y-54774906D01*
X91546889Y-54774906D02*
X91689746Y-54822525D01*
X91689746Y-54822525D02*
X92261175Y-55393953D01*
X92261175Y-55393953D02*
X92261175Y-54774906D01*
X91213556Y-53632049D02*
X92499270Y-54489191D01*
X92261175Y-53298715D02*
X91261175Y-53298715D01*
X91261175Y-53298715D02*
X92261175Y-52727287D01*
X92261175Y-52727287D02*
X91261175Y-52727287D01*
X92261175Y-52251096D02*
X91261175Y-52251096D01*
X91261175Y-52251096D02*
X91261175Y-51870144D01*
X91261175Y-51870144D02*
X91308794Y-51774906D01*
X91308794Y-51774906D02*
X91356413Y-51727287D01*
X91356413Y-51727287D02*
X91451651Y-51679668D01*
X91451651Y-51679668D02*
X91594508Y-51679668D01*
X91594508Y-51679668D02*
X91689746Y-51727287D01*
X91689746Y-51727287D02*
X91737365Y-51774906D01*
X91737365Y-51774906D02*
X91784984Y-51870144D01*
X91784984Y-51870144D02*
X91784984Y-52251096D01*
X92261175Y-51251096D02*
X91261175Y-51251096D01*
X91261175Y-51251096D02*
X92261175Y-50679668D01*
X92261175Y-50679668D02*
X91261175Y-50679668D01*
X93204452Y-71251097D02*
X94013976Y-71251097D01*
X94013976Y-71251097D02*
X94109214Y-71298716D01*
X94109214Y-71298716D02*
X94156833Y-71346335D01*
X94156833Y-71346335D02*
X94204452Y-71441573D01*
X94204452Y-71441573D02*
X94204452Y-71584430D01*
X94204452Y-71584430D02*
X94156833Y-71679668D01*
X93823500Y-71251097D02*
X93871119Y-71346335D01*
X93871119Y-71346335D02*
X93871119Y-71536811D01*
X93871119Y-71536811D02*
X93823500Y-71632049D01*
X93823500Y-71632049D02*
X93775880Y-71679668D01*
X93775880Y-71679668D02*
X93680642Y-71727287D01*
X93680642Y-71727287D02*
X93394928Y-71727287D01*
X93394928Y-71727287D02*
X93299690Y-71679668D01*
X93299690Y-71679668D02*
X93252071Y-71632049D01*
X93252071Y-71632049D02*
X93204452Y-71536811D01*
X93204452Y-71536811D02*
X93204452Y-71346335D01*
X93204452Y-71346335D02*
X93252071Y-71251097D01*
X93871119Y-70774906D02*
X93204452Y-70774906D01*
X92871119Y-70774906D02*
X92918738Y-70822525D01*
X92918738Y-70822525D02*
X92966357Y-70774906D01*
X92966357Y-70774906D02*
X92918738Y-70727287D01*
X92918738Y-70727287D02*
X92871119Y-70774906D01*
X92871119Y-70774906D02*
X92966357Y-70774906D01*
X93204452Y-70441573D02*
X93204452Y-70060621D01*
X92871119Y-70298716D02*
X93728261Y-70298716D01*
X93728261Y-70298716D02*
X93823500Y-70251097D01*
X93823500Y-70251097D02*
X93871119Y-70155859D01*
X93871119Y-70155859D02*
X93871119Y-70060621D01*
X93871119Y-69727287D02*
X92871119Y-69727287D01*
X93871119Y-69298716D02*
X93347309Y-69298716D01*
X93347309Y-69298716D02*
X93252071Y-69346335D01*
X93252071Y-69346335D02*
X93204452Y-69441573D01*
X93204452Y-69441573D02*
X93204452Y-69584430D01*
X93204452Y-69584430D02*
X93252071Y-69679668D01*
X93252071Y-69679668D02*
X93299690Y-69727287D01*
X93204452Y-68393954D02*
X93871119Y-68393954D01*
X93204452Y-68822525D02*
X93728261Y-68822525D01*
X93728261Y-68822525D02*
X93823500Y-68774906D01*
X93823500Y-68774906D02*
X93871119Y-68679668D01*
X93871119Y-68679668D02*
X93871119Y-68536811D01*
X93871119Y-68536811D02*
X93823500Y-68441573D01*
X93823500Y-68441573D02*
X93775880Y-68393954D01*
X93871119Y-67917763D02*
X92871119Y-67917763D01*
X93252071Y-67917763D02*
X93204452Y-67822525D01*
X93204452Y-67822525D02*
X93204452Y-67632049D01*
X93204452Y-67632049D02*
X93252071Y-67536811D01*
X93252071Y-67536811D02*
X93299690Y-67489192D01*
X93299690Y-67489192D02*
X93394928Y-67441573D01*
X93394928Y-67441573D02*
X93680642Y-67441573D01*
X93680642Y-67441573D02*
X93775880Y-67489192D01*
X93775880Y-67489192D02*
X93823500Y-67536811D01*
X93823500Y-67536811D02*
X93871119Y-67632049D01*
X93871119Y-67632049D02*
X93871119Y-67822525D01*
X93871119Y-67822525D02*
X93823500Y-67917763D01*
X93775880Y-67013001D02*
X93823500Y-66965382D01*
X93823500Y-66965382D02*
X93871119Y-67013001D01*
X93871119Y-67013001D02*
X93823500Y-67060620D01*
X93823500Y-67060620D02*
X93775880Y-67013001D01*
X93775880Y-67013001D02*
X93871119Y-67013001D01*
X93823500Y-66108240D02*
X93871119Y-66203478D01*
X93871119Y-66203478D02*
X93871119Y-66393954D01*
X93871119Y-66393954D02*
X93823500Y-66489192D01*
X93823500Y-66489192D02*
X93775880Y-66536811D01*
X93775880Y-66536811D02*
X93680642Y-66584430D01*
X93680642Y-66584430D02*
X93394928Y-66584430D01*
X93394928Y-66584430D02*
X93299690Y-66536811D01*
X93299690Y-66536811D02*
X93252071Y-66489192D01*
X93252071Y-66489192D02*
X93204452Y-66393954D01*
X93204452Y-66393954D02*
X93204452Y-66203478D01*
X93204452Y-66203478D02*
X93252071Y-66108240D01*
X93871119Y-65536811D02*
X93823500Y-65632049D01*
X93823500Y-65632049D02*
X93775880Y-65679668D01*
X93775880Y-65679668D02*
X93680642Y-65727287D01*
X93680642Y-65727287D02*
X93394928Y-65727287D01*
X93394928Y-65727287D02*
X93299690Y-65679668D01*
X93299690Y-65679668D02*
X93252071Y-65632049D01*
X93252071Y-65632049D02*
X93204452Y-65536811D01*
X93204452Y-65536811D02*
X93204452Y-65393954D01*
X93204452Y-65393954D02*
X93252071Y-65298716D01*
X93252071Y-65298716D02*
X93299690Y-65251097D01*
X93299690Y-65251097D02*
X93394928Y-65203478D01*
X93394928Y-65203478D02*
X93680642Y-65203478D01*
X93680642Y-65203478D02*
X93775880Y-65251097D01*
X93775880Y-65251097D02*
X93823500Y-65298716D01*
X93823500Y-65298716D02*
X93871119Y-65393954D01*
X93871119Y-65393954D02*
X93871119Y-65536811D01*
X93871119Y-64774906D02*
X93204452Y-64774906D01*
X93299690Y-64774906D02*
X93252071Y-64727287D01*
X93252071Y-64727287D02*
X93204452Y-64632049D01*
X93204452Y-64632049D02*
X93204452Y-64489192D01*
X93204452Y-64489192D02*
X93252071Y-64393954D01*
X93252071Y-64393954D02*
X93347309Y-64346335D01*
X93347309Y-64346335D02*
X93871119Y-64346335D01*
X93347309Y-64346335D02*
X93252071Y-64298716D01*
X93252071Y-64298716D02*
X93204452Y-64203478D01*
X93204452Y-64203478D02*
X93204452Y-64060621D01*
X93204452Y-64060621D02*
X93252071Y-63965382D01*
X93252071Y-63965382D02*
X93347309Y-63917763D01*
X93347309Y-63917763D02*
X93871119Y-63917763D01*
X92823500Y-62727288D02*
X94109214Y-63584430D01*
X93585404Y-62441573D02*
X93585404Y-61965383D01*
X93871119Y-62536811D02*
X92871119Y-62203478D01*
X92871119Y-62203478D02*
X93871119Y-61870145D01*
X93204452Y-61536811D02*
X93871119Y-61536811D01*
X93299690Y-61536811D02*
X93252071Y-61489192D01*
X93252071Y-61489192D02*
X93204452Y-61393954D01*
X93204452Y-61393954D02*
X93204452Y-61251097D01*
X93204452Y-61251097D02*
X93252071Y-61155859D01*
X93252071Y-61155859D02*
X93347309Y-61108240D01*
X93347309Y-61108240D02*
X93871119Y-61108240D01*
X93204452Y-60203478D02*
X94013976Y-60203478D01*
X94013976Y-60203478D02*
X94109214Y-60251097D01*
X94109214Y-60251097D02*
X94156833Y-60298716D01*
X94156833Y-60298716D02*
X94204452Y-60393954D01*
X94204452Y-60393954D02*
X94204452Y-60536811D01*
X94204452Y-60536811D02*
X94156833Y-60632049D01*
X93823500Y-60203478D02*
X93871119Y-60298716D01*
X93871119Y-60298716D02*
X93871119Y-60489192D01*
X93871119Y-60489192D02*
X93823500Y-60584430D01*
X93823500Y-60584430D02*
X93775880Y-60632049D01*
X93775880Y-60632049D02*
X93680642Y-60679668D01*
X93680642Y-60679668D02*
X93394928Y-60679668D01*
X93394928Y-60679668D02*
X93299690Y-60632049D01*
X93299690Y-60632049D02*
X93252071Y-60584430D01*
X93252071Y-60584430D02*
X93204452Y-60489192D01*
X93204452Y-60489192D02*
X93204452Y-60298716D01*
X93204452Y-60298716D02*
X93252071Y-60203478D01*
X93871119Y-59727287D02*
X93204452Y-59727287D01*
X93394928Y-59727287D02*
X93299690Y-59679668D01*
X93299690Y-59679668D02*
X93252071Y-59632049D01*
X93252071Y-59632049D02*
X93204452Y-59536811D01*
X93204452Y-59536811D02*
X93204452Y-59441573D01*
X93204452Y-59203477D02*
X93871119Y-58965382D01*
X93204452Y-58727287D02*
X93871119Y-58965382D01*
X93871119Y-58965382D02*
X94109214Y-59060620D01*
X94109214Y-59060620D02*
X94156833Y-59108239D01*
X94156833Y-59108239D02*
X94204452Y-59203477D01*
X92871119Y-58346334D02*
X93680642Y-58346334D01*
X93680642Y-58346334D02*
X93775880Y-58298715D01*
X93775880Y-58298715D02*
X93823500Y-58251096D01*
X93823500Y-58251096D02*
X93871119Y-58155858D01*
X93871119Y-58155858D02*
X93871119Y-57965382D01*
X93871119Y-57965382D02*
X93823500Y-57870144D01*
X93823500Y-57870144D02*
X93775880Y-57822525D01*
X93775880Y-57822525D02*
X93680642Y-57774906D01*
X93680642Y-57774906D02*
X92871119Y-57774906D01*
X93347309Y-57298715D02*
X93347309Y-56965382D01*
X93871119Y-56822525D02*
X93871119Y-57298715D01*
X93871119Y-57298715D02*
X92871119Y-57298715D01*
X92871119Y-57298715D02*
X92871119Y-56822525D01*
X93347309Y-56060620D02*
X93347309Y-56393953D01*
X93871119Y-56393953D02*
X92871119Y-56393953D01*
X92871119Y-56393953D02*
X92871119Y-55917763D01*
X93871119Y-55536810D02*
X92871119Y-55536810D01*
X92823500Y-54346335D02*
X94109214Y-55203477D01*
X93585404Y-54060620D02*
X93585404Y-53584430D01*
X93871119Y-54155858D02*
X92871119Y-53822525D01*
X92871119Y-53822525D02*
X93871119Y-53489192D01*
X93204452Y-53155858D02*
X93871119Y-53155858D01*
X93299690Y-53155858D02*
X93252071Y-53108239D01*
X93252071Y-53108239D02*
X93204452Y-53013001D01*
X93204452Y-53013001D02*
X93204452Y-52870144D01*
X93204452Y-52870144D02*
X93252071Y-52774906D01*
X93252071Y-52774906D02*
X93347309Y-52727287D01*
X93347309Y-52727287D02*
X93871119Y-52727287D01*
X93204452Y-51822525D02*
X94013976Y-51822525D01*
X94013976Y-51822525D02*
X94109214Y-51870144D01*
X94109214Y-51870144D02*
X94156833Y-51917763D01*
X94156833Y-51917763D02*
X94204452Y-52013001D01*
X94204452Y-52013001D02*
X94204452Y-52155858D01*
X94204452Y-52155858D02*
X94156833Y-52251096D01*
X93823500Y-51822525D02*
X93871119Y-51917763D01*
X93871119Y-51917763D02*
X93871119Y-52108239D01*
X93871119Y-52108239D02*
X93823500Y-52203477D01*
X93823500Y-52203477D02*
X93775880Y-52251096D01*
X93775880Y-52251096D02*
X93680642Y-52298715D01*
X93680642Y-52298715D02*
X93394928Y-52298715D01*
X93394928Y-52298715D02*
X93299690Y-52251096D01*
X93299690Y-52251096D02*
X93252071Y-52203477D01*
X93252071Y-52203477D02*
X93204452Y-52108239D01*
X93204452Y-52108239D02*
X93204452Y-51917763D01*
X93204452Y-51917763D02*
X93252071Y-51822525D01*
X93871119Y-51346334D02*
X93204452Y-51346334D01*
X93394928Y-51346334D02*
X93299690Y-51298715D01*
X93299690Y-51298715D02*
X93252071Y-51251096D01*
X93252071Y-51251096D02*
X93204452Y-51155858D01*
X93204452Y-51155858D02*
X93204452Y-51060620D01*
X93204452Y-50822524D02*
X93871119Y-50584429D01*
X93204452Y-50346334D02*
X93871119Y-50584429D01*
X93871119Y-50584429D02*
X94109214Y-50679667D01*
X94109214Y-50679667D02*
X94156833Y-50727286D01*
X94156833Y-50727286D02*
X94204452Y-50822524D01*
X93347309Y-49965381D02*
X93347309Y-49632048D01*
X93871119Y-49489191D02*
X93871119Y-49965381D01*
X93871119Y-49965381D02*
X92871119Y-49965381D01*
X92871119Y-49965381D02*
X92871119Y-49489191D01*
X93823500Y-49108238D02*
X93871119Y-48965381D01*
X93871119Y-48965381D02*
X93871119Y-48727286D01*
X93871119Y-48727286D02*
X93823500Y-48632048D01*
X93823500Y-48632048D02*
X93775880Y-48584429D01*
X93775880Y-48584429D02*
X93680642Y-48536810D01*
X93680642Y-48536810D02*
X93585404Y-48536810D01*
X93585404Y-48536810D02*
X93490166Y-48584429D01*
X93490166Y-48584429D02*
X93442547Y-48632048D01*
X93442547Y-48632048D02*
X93394928Y-48727286D01*
X93394928Y-48727286D02*
X93347309Y-48917762D01*
X93347309Y-48917762D02*
X93299690Y-49013000D01*
X93299690Y-49013000D02*
X93252071Y-49060619D01*
X93252071Y-49060619D02*
X93156833Y-49108238D01*
X93156833Y-49108238D02*
X93061595Y-49108238D01*
X93061595Y-49108238D02*
X92966357Y-49060619D01*
X92966357Y-49060619D02*
X92918738Y-49013000D01*
X92918738Y-49013000D02*
X92871119Y-48917762D01*
X92871119Y-48917762D02*
X92871119Y-48679667D01*
X92871119Y-48679667D02*
X92918738Y-48536810D01*
X93871119Y-48108238D02*
X92871119Y-48108238D01*
X92871119Y-48108238D02*
X92871119Y-47727286D01*
X92871119Y-47727286D02*
X92918738Y-47632048D01*
X92918738Y-47632048D02*
X92966357Y-47584429D01*
X92966357Y-47584429D02*
X93061595Y-47536810D01*
X93061595Y-47536810D02*
X93204452Y-47536810D01*
X93204452Y-47536810D02*
X93299690Y-47584429D01*
X93299690Y-47584429D02*
X93347309Y-47632048D01*
X93347309Y-47632048D02*
X93394928Y-47727286D01*
X93394928Y-47727286D02*
X93394928Y-48108238D01*
X92871119Y-46489190D02*
X93871119Y-46155857D01*
X93871119Y-46155857D02*
X92871119Y-45822524D01*
X93871119Y-44965381D02*
X93871119Y-45536809D01*
X93871119Y-45251095D02*
X92871119Y-45251095D01*
X92871119Y-45251095D02*
X93013976Y-45346333D01*
X93013976Y-45346333D02*
X93109214Y-45441571D01*
X93109214Y-45441571D02*
X93156833Y-45536809D01*
X93775880Y-44536809D02*
X93823500Y-44489190D01*
X93823500Y-44489190D02*
X93871119Y-44536809D01*
X93871119Y-44536809D02*
X93823500Y-44584428D01*
X93823500Y-44584428D02*
X93775880Y-44536809D01*
X93775880Y-44536809D02*
X93871119Y-44536809D01*
X92871119Y-44155857D02*
X92871119Y-43536810D01*
X92871119Y-43536810D02*
X93252071Y-43870143D01*
X93252071Y-43870143D02*
X93252071Y-43727286D01*
X93252071Y-43727286D02*
X93299690Y-43632048D01*
X93299690Y-43632048D02*
X93347309Y-43584429D01*
X93347309Y-43584429D02*
X93442547Y-43536810D01*
X93442547Y-43536810D02*
X93680642Y-43536810D01*
X93680642Y-43536810D02*
X93775880Y-43584429D01*
X93775880Y-43584429D02*
X93823500Y-43632048D01*
X93823500Y-43632048D02*
X93871119Y-43727286D01*
X93871119Y-43727286D02*
X93871119Y-44013000D01*
X93871119Y-44013000D02*
X93823500Y-44108238D01*
X93823500Y-44108238D02*
X93775880Y-44155857D01*
D11*
X83980497Y-83806678D02*
X83980497Y-85020964D01*
X83980497Y-85020964D02*
X84051926Y-85163821D01*
X84051926Y-85163821D02*
X84123355Y-85235250D01*
X84123355Y-85235250D02*
X84266212Y-85306678D01*
X84266212Y-85306678D02*
X84551926Y-85306678D01*
X84551926Y-85306678D02*
X84694783Y-85235250D01*
X84694783Y-85235250D02*
X84766212Y-85163821D01*
X84766212Y-85163821D02*
X84837640Y-85020964D01*
X84837640Y-85020964D02*
X84837640Y-83806678D01*
X85480498Y-85235250D02*
X85694784Y-85306678D01*
X85694784Y-85306678D02*
X86051926Y-85306678D01*
X86051926Y-85306678D02*
X86194784Y-85235250D01*
X86194784Y-85235250D02*
X86266212Y-85163821D01*
X86266212Y-85163821D02*
X86337641Y-85020964D01*
X86337641Y-85020964D02*
X86337641Y-84878107D01*
X86337641Y-84878107D02*
X86266212Y-84735250D01*
X86266212Y-84735250D02*
X86194784Y-84663821D01*
X86194784Y-84663821D02*
X86051926Y-84592392D01*
X86051926Y-84592392D02*
X85766212Y-84520964D01*
X85766212Y-84520964D02*
X85623355Y-84449535D01*
X85623355Y-84449535D02*
X85551926Y-84378107D01*
X85551926Y-84378107D02*
X85480498Y-84235250D01*
X85480498Y-84235250D02*
X85480498Y-84092392D01*
X85480498Y-84092392D02*
X85551926Y-83949535D01*
X85551926Y-83949535D02*
X85623355Y-83878107D01*
X85623355Y-83878107D02*
X85766212Y-83806678D01*
X85766212Y-83806678D02*
X86123355Y-83806678D01*
X86123355Y-83806678D02*
X86337641Y-83878107D01*
X87480497Y-84520964D02*
X87694783Y-84592392D01*
X87694783Y-84592392D02*
X87766212Y-84663821D01*
X87766212Y-84663821D02*
X87837640Y-84806678D01*
X87837640Y-84806678D02*
X87837640Y-85020964D01*
X87837640Y-85020964D02*
X87766212Y-85163821D01*
X87766212Y-85163821D02*
X87694783Y-85235250D01*
X87694783Y-85235250D02*
X87551926Y-85306678D01*
X87551926Y-85306678D02*
X86980497Y-85306678D01*
X86980497Y-85306678D02*
X86980497Y-83806678D01*
X86980497Y-83806678D02*
X87480497Y-83806678D01*
X87480497Y-83806678D02*
X87623355Y-83878107D01*
X87623355Y-83878107D02*
X87694783Y-83949535D01*
X87694783Y-83949535D02*
X87766212Y-84092392D01*
X87766212Y-84092392D02*
X87766212Y-84235250D01*
X87766212Y-84235250D02*
X87694783Y-84378107D01*
X87694783Y-84378107D02*
X87623355Y-84449535D01*
X87623355Y-84449535D02*
X87480497Y-84520964D01*
X87480497Y-84520964D02*
X86980497Y-84520964D01*
X89623354Y-85306678D02*
X89623354Y-83806678D01*
X89623354Y-83806678D02*
X90194783Y-83806678D01*
X90194783Y-83806678D02*
X90337640Y-83878107D01*
X90337640Y-83878107D02*
X90409069Y-83949535D01*
X90409069Y-83949535D02*
X90480497Y-84092392D01*
X90480497Y-84092392D02*
X90480497Y-84306678D01*
X90480497Y-84306678D02*
X90409069Y-84449535D01*
X90409069Y-84449535D02*
X90337640Y-84520964D01*
X90337640Y-84520964D02*
X90194783Y-84592392D01*
X90194783Y-84592392D02*
X89623354Y-84592392D01*
X91337640Y-85306678D02*
X91194783Y-85235250D01*
X91194783Y-85235250D02*
X91123354Y-85163821D01*
X91123354Y-85163821D02*
X91051926Y-85020964D01*
X91051926Y-85020964D02*
X91051926Y-84592392D01*
X91051926Y-84592392D02*
X91123354Y-84449535D01*
X91123354Y-84449535D02*
X91194783Y-84378107D01*
X91194783Y-84378107D02*
X91337640Y-84306678D01*
X91337640Y-84306678D02*
X91551926Y-84306678D01*
X91551926Y-84306678D02*
X91694783Y-84378107D01*
X91694783Y-84378107D02*
X91766212Y-84449535D01*
X91766212Y-84449535D02*
X91837640Y-84592392D01*
X91837640Y-84592392D02*
X91837640Y-85020964D01*
X91837640Y-85020964D02*
X91766212Y-85163821D01*
X91766212Y-85163821D02*
X91694783Y-85235250D01*
X91694783Y-85235250D02*
X91551926Y-85306678D01*
X91551926Y-85306678D02*
X91337640Y-85306678D01*
X92480497Y-85306678D02*
X92480497Y-84306678D01*
X92480497Y-84592392D02*
X92551926Y-84449535D01*
X92551926Y-84449535D02*
X92623355Y-84378107D01*
X92623355Y-84378107D02*
X92766212Y-84306678D01*
X92766212Y-84306678D02*
X92909069Y-84306678D01*
X93194783Y-84306678D02*
X93766211Y-84306678D01*
X93409068Y-83806678D02*
X93409068Y-85092392D01*
X93409068Y-85092392D02*
X93480497Y-85235250D01*
X93480497Y-85235250D02*
X93623354Y-85306678D01*
X93623354Y-85306678D02*
X93766211Y-85306678D01*
D10*
X78280074Y-81872419D02*
X77803884Y-81872419D01*
X77803884Y-81872419D02*
X77756265Y-82348609D01*
X77756265Y-82348609D02*
X77803884Y-82300990D01*
X77803884Y-82300990D02*
X77899122Y-82253371D01*
X77899122Y-82253371D02*
X78137217Y-82253371D01*
X78137217Y-82253371D02*
X78232455Y-82300990D01*
X78232455Y-82300990D02*
X78280074Y-82348609D01*
X78280074Y-82348609D02*
X78327693Y-82443847D01*
X78327693Y-82443847D02*
X78327693Y-82681942D01*
X78327693Y-82681942D02*
X78280074Y-82777180D01*
X78280074Y-82777180D02*
X78232455Y-82824800D01*
X78232455Y-82824800D02*
X78137217Y-82872419D01*
X78137217Y-82872419D02*
X77899122Y-82872419D01*
X77899122Y-82872419D02*
X77803884Y-82824800D01*
X77803884Y-82824800D02*
X77756265Y-82777180D01*
X78613408Y-81872419D02*
X78946741Y-82872419D01*
X78946741Y-82872419D02*
X79280074Y-81872419D01*
D13*
X60753333Y-50084819D02*
X60420000Y-49608628D01*
X60181905Y-50084819D02*
X60181905Y-49084819D01*
X60181905Y-49084819D02*
X60562857Y-49084819D01*
X60562857Y-49084819D02*
X60658095Y-49132438D01*
X60658095Y-49132438D02*
X60705714Y-49180057D01*
X60705714Y-49180057D02*
X60753333Y-49275295D01*
X60753333Y-49275295D02*
X60753333Y-49418152D01*
X60753333Y-49418152D02*
X60705714Y-49513390D01*
X60705714Y-49513390D02*
X60658095Y-49561009D01*
X60658095Y-49561009D02*
X60562857Y-49608628D01*
X60562857Y-49608628D02*
X60181905Y-49608628D01*
X61134286Y-49180057D02*
X61181905Y-49132438D01*
X61181905Y-49132438D02*
X61277143Y-49084819D01*
X61277143Y-49084819D02*
X61515238Y-49084819D01*
X61515238Y-49084819D02*
X61610476Y-49132438D01*
X61610476Y-49132438D02*
X61658095Y-49180057D01*
X61658095Y-49180057D02*
X61705714Y-49275295D01*
X61705714Y-49275295D02*
X61705714Y-49370533D01*
X61705714Y-49370533D02*
X61658095Y-49513390D01*
X61658095Y-49513390D02*
X61086667Y-50084819D01*
X61086667Y-50084819D02*
X61705714Y-50084819D01*
X60913333Y-75584819D02*
X60580000Y-75108628D01*
X60341905Y-75584819D02*
X60341905Y-74584819D01*
X60341905Y-74584819D02*
X60722857Y-74584819D01*
X60722857Y-74584819D02*
X60818095Y-74632438D01*
X60818095Y-74632438D02*
X60865714Y-74680057D01*
X60865714Y-74680057D02*
X60913333Y-74775295D01*
X60913333Y-74775295D02*
X60913333Y-74918152D01*
X60913333Y-74918152D02*
X60865714Y-75013390D01*
X60865714Y-75013390D02*
X60818095Y-75061009D01*
X60818095Y-75061009D02*
X60722857Y-75108628D01*
X60722857Y-75108628D02*
X60341905Y-75108628D01*
X61246667Y-74584819D02*
X61865714Y-74584819D01*
X61865714Y-74584819D02*
X61532381Y-74965771D01*
X61532381Y-74965771D02*
X61675238Y-74965771D01*
X61675238Y-74965771D02*
X61770476Y-75013390D01*
X61770476Y-75013390D02*
X61818095Y-75061009D01*
X61818095Y-75061009D02*
X61865714Y-75156247D01*
X61865714Y-75156247D02*
X61865714Y-75394342D01*
X61865714Y-75394342D02*
X61818095Y-75489580D01*
X61818095Y-75489580D02*
X61770476Y-75537200D01*
X61770476Y-75537200D02*
X61675238Y-75584819D01*
X61675238Y-75584819D02*
X61389524Y-75584819D01*
X61389524Y-75584819D02*
X61294286Y-75537200D01*
X61294286Y-75537200D02*
X61246667Y-75489580D01*
X46436666Y-66534819D02*
X46436666Y-67249104D01*
X46436666Y-67249104D02*
X46389047Y-67391961D01*
X46389047Y-67391961D02*
X46293809Y-67487200D01*
X46293809Y-67487200D02*
X46150952Y-67534819D01*
X46150952Y-67534819D02*
X46055714Y-67534819D01*
X46817619Y-66534819D02*
X47436666Y-66534819D01*
X47436666Y-66534819D02*
X47103333Y-66915771D01*
X47103333Y-66915771D02*
X47246190Y-66915771D01*
X47246190Y-66915771D02*
X47341428Y-66963390D01*
X47341428Y-66963390D02*
X47389047Y-67011009D01*
X47389047Y-67011009D02*
X47436666Y-67106247D01*
X47436666Y-67106247D02*
X47436666Y-67344342D01*
X47436666Y-67344342D02*
X47389047Y-67439580D01*
X47389047Y-67439580D02*
X47341428Y-67487200D01*
X47341428Y-67487200D02*
X47246190Y-67534819D01*
X47246190Y-67534819D02*
X46960476Y-67534819D01*
X46960476Y-67534819D02*
X46865238Y-67487200D01*
X46865238Y-67487200D02*
X46817619Y-67439580D01*
X55074819Y-86103333D02*
X55789104Y-86103333D01*
X55789104Y-86103333D02*
X55931961Y-86150952D01*
X55931961Y-86150952D02*
X56027200Y-86246190D01*
X56027200Y-86246190D02*
X56074819Y-86389047D01*
X56074819Y-86389047D02*
X56074819Y-86484285D01*
X55170057Y-85674761D02*
X55122438Y-85627142D01*
X55122438Y-85627142D02*
X55074819Y-85531904D01*
X55074819Y-85531904D02*
X55074819Y-85293809D01*
X55074819Y-85293809D02*
X55122438Y-85198571D01*
X55122438Y-85198571D02*
X55170057Y-85150952D01*
X55170057Y-85150952D02*
X55265295Y-85103333D01*
X55265295Y-85103333D02*
X55360533Y-85103333D01*
X55360533Y-85103333D02*
X55503390Y-85150952D01*
X55503390Y-85150952D02*
X56074819Y-85722380D01*
X56074819Y-85722380D02*
X56074819Y-85103333D01*
X68407200Y-89865238D02*
X68454819Y-89722381D01*
X68454819Y-89722381D02*
X68454819Y-89484286D01*
X68454819Y-89484286D02*
X68407200Y-89389048D01*
X68407200Y-89389048D02*
X68359580Y-89341429D01*
X68359580Y-89341429D02*
X68264342Y-89293810D01*
X68264342Y-89293810D02*
X68169104Y-89293810D01*
X68169104Y-89293810D02*
X68073866Y-89341429D01*
X68073866Y-89341429D02*
X68026247Y-89389048D01*
X68026247Y-89389048D02*
X67978628Y-89484286D01*
X67978628Y-89484286D02*
X67931009Y-89674762D01*
X67931009Y-89674762D02*
X67883390Y-89770000D01*
X67883390Y-89770000D02*
X67835771Y-89817619D01*
X67835771Y-89817619D02*
X67740533Y-89865238D01*
X67740533Y-89865238D02*
X67645295Y-89865238D01*
X67645295Y-89865238D02*
X67550057Y-89817619D01*
X67550057Y-89817619D02*
X67502438Y-89770000D01*
X67502438Y-89770000D02*
X67454819Y-89674762D01*
X67454819Y-89674762D02*
X67454819Y-89436667D01*
X67454819Y-89436667D02*
X67502438Y-89293810D01*
X67788152Y-88960476D02*
X68454819Y-88722381D01*
X67788152Y-88484286D02*
X68454819Y-88722381D01*
X68454819Y-88722381D02*
X68692914Y-88817619D01*
X68692914Y-88817619D02*
X68740533Y-88865238D01*
X68740533Y-88865238D02*
X68788152Y-88960476D01*
X68407200Y-88150952D02*
X68454819Y-88055714D01*
X68454819Y-88055714D02*
X68454819Y-87865238D01*
X68454819Y-87865238D02*
X68407200Y-87770000D01*
X68407200Y-87770000D02*
X68311961Y-87722381D01*
X68311961Y-87722381D02*
X68264342Y-87722381D01*
X68264342Y-87722381D02*
X68169104Y-87770000D01*
X68169104Y-87770000D02*
X68121485Y-87865238D01*
X68121485Y-87865238D02*
X68121485Y-88008095D01*
X68121485Y-88008095D02*
X68073866Y-88103333D01*
X68073866Y-88103333D02*
X67978628Y-88150952D01*
X67978628Y-88150952D02*
X67931009Y-88150952D01*
X67931009Y-88150952D02*
X67835771Y-88103333D01*
X67835771Y-88103333D02*
X67788152Y-88008095D01*
X67788152Y-88008095D02*
X67788152Y-87865238D01*
X67788152Y-87865238D02*
X67835771Y-87770000D01*
X67788152Y-87436666D02*
X67788152Y-87055714D01*
X67454819Y-87293809D02*
X68311961Y-87293809D01*
X68311961Y-87293809D02*
X68407200Y-87246190D01*
X68407200Y-87246190D02*
X68454819Y-87150952D01*
X68454819Y-87150952D02*
X68454819Y-87055714D01*
X68407200Y-86341428D02*
X68454819Y-86436666D01*
X68454819Y-86436666D02*
X68454819Y-86627142D01*
X68454819Y-86627142D02*
X68407200Y-86722380D01*
X68407200Y-86722380D02*
X68311961Y-86769999D01*
X68311961Y-86769999D02*
X67931009Y-86769999D01*
X67931009Y-86769999D02*
X67835771Y-86722380D01*
X67835771Y-86722380D02*
X67788152Y-86627142D01*
X67788152Y-86627142D02*
X67788152Y-86436666D01*
X67788152Y-86436666D02*
X67835771Y-86341428D01*
X67835771Y-86341428D02*
X67931009Y-86293809D01*
X67931009Y-86293809D02*
X68026247Y-86293809D01*
X68026247Y-86293809D02*
X68121485Y-86769999D01*
X68454819Y-85865237D02*
X67788152Y-85865237D01*
X67883390Y-85865237D02*
X67835771Y-85817618D01*
X67835771Y-85817618D02*
X67788152Y-85722380D01*
X67788152Y-85722380D02*
X67788152Y-85579523D01*
X67788152Y-85579523D02*
X67835771Y-85484285D01*
X67835771Y-85484285D02*
X67931009Y-85436666D01*
X67931009Y-85436666D02*
X68454819Y-85436666D01*
X67931009Y-85436666D02*
X67835771Y-85389047D01*
X67835771Y-85389047D02*
X67788152Y-85293809D01*
X67788152Y-85293809D02*
X67788152Y-85150952D01*
X67788152Y-85150952D02*
X67835771Y-85055713D01*
X67835771Y-85055713D02*
X67931009Y-85008094D01*
X67931009Y-85008094D02*
X68454819Y-85008094D01*
X67454819Y-83579523D02*
X67454819Y-83389047D01*
X67454819Y-83389047D02*
X67502438Y-83293809D01*
X67502438Y-83293809D02*
X67597676Y-83198571D01*
X67597676Y-83198571D02*
X67788152Y-83150952D01*
X67788152Y-83150952D02*
X68121485Y-83150952D01*
X68121485Y-83150952D02*
X68311961Y-83198571D01*
X68311961Y-83198571D02*
X68407200Y-83293809D01*
X68407200Y-83293809D02*
X68454819Y-83389047D01*
X68454819Y-83389047D02*
X68454819Y-83579523D01*
X68454819Y-83579523D02*
X68407200Y-83674761D01*
X68407200Y-83674761D02*
X68311961Y-83769999D01*
X68311961Y-83769999D02*
X68121485Y-83817618D01*
X68121485Y-83817618D02*
X67788152Y-83817618D01*
X67788152Y-83817618D02*
X67597676Y-83769999D01*
X67597676Y-83769999D02*
X67502438Y-83674761D01*
X67502438Y-83674761D02*
X67454819Y-83579523D01*
X67788152Y-82293809D02*
X68454819Y-82293809D01*
X67788152Y-82722380D02*
X68311961Y-82722380D01*
X68311961Y-82722380D02*
X68407200Y-82674761D01*
X68407200Y-82674761D02*
X68454819Y-82579523D01*
X68454819Y-82579523D02*
X68454819Y-82436666D01*
X68454819Y-82436666D02*
X68407200Y-82341428D01*
X68407200Y-82341428D02*
X68359580Y-82293809D01*
X67788152Y-81960475D02*
X67788152Y-81579523D01*
X67454819Y-81817618D02*
X68311961Y-81817618D01*
X68311961Y-81817618D02*
X68407200Y-81769999D01*
X68407200Y-81769999D02*
X68454819Y-81674761D01*
X68454819Y-81674761D02*
X68454819Y-81579523D01*
X40034819Y-86063333D02*
X40749104Y-86063333D01*
X40749104Y-86063333D02*
X40891961Y-86110952D01*
X40891961Y-86110952D02*
X40987200Y-86206190D01*
X40987200Y-86206190D02*
X41034819Y-86349047D01*
X41034819Y-86349047D02*
X41034819Y-86444285D01*
X41034819Y-85063333D02*
X41034819Y-85634761D01*
X41034819Y-85349047D02*
X40034819Y-85349047D01*
X40034819Y-85349047D02*
X40177676Y-85444285D01*
X40177676Y-85444285D02*
X40272914Y-85539523D01*
X40272914Y-85539523D02*
X40320533Y-85634761D01*
X53367200Y-89253809D02*
X53414819Y-89110952D01*
X53414819Y-89110952D02*
X53414819Y-88872857D01*
X53414819Y-88872857D02*
X53367200Y-88777619D01*
X53367200Y-88777619D02*
X53319580Y-88730000D01*
X53319580Y-88730000D02*
X53224342Y-88682381D01*
X53224342Y-88682381D02*
X53129104Y-88682381D01*
X53129104Y-88682381D02*
X53033866Y-88730000D01*
X53033866Y-88730000D02*
X52986247Y-88777619D01*
X52986247Y-88777619D02*
X52938628Y-88872857D01*
X52938628Y-88872857D02*
X52891009Y-89063333D01*
X52891009Y-89063333D02*
X52843390Y-89158571D01*
X52843390Y-89158571D02*
X52795771Y-89206190D01*
X52795771Y-89206190D02*
X52700533Y-89253809D01*
X52700533Y-89253809D02*
X52605295Y-89253809D01*
X52605295Y-89253809D02*
X52510057Y-89206190D01*
X52510057Y-89206190D02*
X52462438Y-89158571D01*
X52462438Y-89158571D02*
X52414819Y-89063333D01*
X52414819Y-89063333D02*
X52414819Y-88825238D01*
X52414819Y-88825238D02*
X52462438Y-88682381D01*
X52748152Y-88349047D02*
X53414819Y-88110952D01*
X52748152Y-87872857D02*
X53414819Y-88110952D01*
X53414819Y-88110952D02*
X53652914Y-88206190D01*
X53652914Y-88206190D02*
X53700533Y-88253809D01*
X53700533Y-88253809D02*
X53748152Y-88349047D01*
X53367200Y-87539523D02*
X53414819Y-87444285D01*
X53414819Y-87444285D02*
X53414819Y-87253809D01*
X53414819Y-87253809D02*
X53367200Y-87158571D01*
X53367200Y-87158571D02*
X53271961Y-87110952D01*
X53271961Y-87110952D02*
X53224342Y-87110952D01*
X53224342Y-87110952D02*
X53129104Y-87158571D01*
X53129104Y-87158571D02*
X53081485Y-87253809D01*
X53081485Y-87253809D02*
X53081485Y-87396666D01*
X53081485Y-87396666D02*
X53033866Y-87491904D01*
X53033866Y-87491904D02*
X52938628Y-87539523D01*
X52938628Y-87539523D02*
X52891009Y-87539523D01*
X52891009Y-87539523D02*
X52795771Y-87491904D01*
X52795771Y-87491904D02*
X52748152Y-87396666D01*
X52748152Y-87396666D02*
X52748152Y-87253809D01*
X52748152Y-87253809D02*
X52795771Y-87158571D01*
X52748152Y-86825237D02*
X52748152Y-86444285D01*
X52414819Y-86682380D02*
X53271961Y-86682380D01*
X53271961Y-86682380D02*
X53367200Y-86634761D01*
X53367200Y-86634761D02*
X53414819Y-86539523D01*
X53414819Y-86539523D02*
X53414819Y-86444285D01*
X53367200Y-85729999D02*
X53414819Y-85825237D01*
X53414819Y-85825237D02*
X53414819Y-86015713D01*
X53414819Y-86015713D02*
X53367200Y-86110951D01*
X53367200Y-86110951D02*
X53271961Y-86158570D01*
X53271961Y-86158570D02*
X52891009Y-86158570D01*
X52891009Y-86158570D02*
X52795771Y-86110951D01*
X52795771Y-86110951D02*
X52748152Y-86015713D01*
X52748152Y-86015713D02*
X52748152Y-85825237D01*
X52748152Y-85825237D02*
X52795771Y-85729999D01*
X52795771Y-85729999D02*
X52891009Y-85682380D01*
X52891009Y-85682380D02*
X52986247Y-85682380D01*
X52986247Y-85682380D02*
X53081485Y-86158570D01*
X53414819Y-85253808D02*
X52748152Y-85253808D01*
X52843390Y-85253808D02*
X52795771Y-85206189D01*
X52795771Y-85206189D02*
X52748152Y-85110951D01*
X52748152Y-85110951D02*
X52748152Y-84968094D01*
X52748152Y-84968094D02*
X52795771Y-84872856D01*
X52795771Y-84872856D02*
X52891009Y-84825237D01*
X52891009Y-84825237D02*
X53414819Y-84825237D01*
X52891009Y-84825237D02*
X52795771Y-84777618D01*
X52795771Y-84777618D02*
X52748152Y-84682380D01*
X52748152Y-84682380D02*
X52748152Y-84539523D01*
X52748152Y-84539523D02*
X52795771Y-84444284D01*
X52795771Y-84444284D02*
X52891009Y-84396665D01*
X52891009Y-84396665D02*
X53414819Y-84396665D01*
X53414819Y-83158570D02*
X52414819Y-83158570D01*
X52748152Y-82682380D02*
X53414819Y-82682380D01*
X52843390Y-82682380D02*
X52795771Y-82634761D01*
X52795771Y-82634761D02*
X52748152Y-82539523D01*
X52748152Y-82539523D02*
X52748152Y-82396666D01*
X52748152Y-82396666D02*
X52795771Y-82301428D01*
X52795771Y-82301428D02*
X52891009Y-82253809D01*
X52891009Y-82253809D02*
X53414819Y-82253809D01*
X64031905Y-48954819D02*
X64031905Y-47954819D01*
X64031905Y-47954819D02*
X64270000Y-47954819D01*
X64270000Y-47954819D02*
X64412857Y-48002438D01*
X64412857Y-48002438D02*
X64508095Y-48097676D01*
X64508095Y-48097676D02*
X64555714Y-48192914D01*
X64555714Y-48192914D02*
X64603333Y-48383390D01*
X64603333Y-48383390D02*
X64603333Y-48526247D01*
X64603333Y-48526247D02*
X64555714Y-48716723D01*
X64555714Y-48716723D02*
X64508095Y-48811961D01*
X64508095Y-48811961D02*
X64412857Y-48907200D01*
X64412857Y-48907200D02*
X64270000Y-48954819D01*
X64270000Y-48954819D02*
X64031905Y-48954819D01*
X64984286Y-48050057D02*
X65031905Y-48002438D01*
X65031905Y-48002438D02*
X65127143Y-47954819D01*
X65127143Y-47954819D02*
X65365238Y-47954819D01*
X65365238Y-47954819D02*
X65460476Y-48002438D01*
X65460476Y-48002438D02*
X65508095Y-48050057D01*
X65508095Y-48050057D02*
X65555714Y-48145295D01*
X65555714Y-48145295D02*
X65555714Y-48240533D01*
X65555714Y-48240533D02*
X65508095Y-48383390D01*
X65508095Y-48383390D02*
X64936667Y-48954819D01*
X64936667Y-48954819D02*
X65555714Y-48954819D01*
X63484286Y-42494819D02*
X63484286Y-41494819D01*
X63484286Y-41971009D02*
X64055714Y-41971009D01*
X64055714Y-42494819D02*
X64055714Y-41494819D01*
X64531905Y-42494819D02*
X64531905Y-41494819D01*
X64531905Y-41494819D02*
X64770000Y-41494819D01*
X64770000Y-41494819D02*
X64912857Y-41542438D01*
X64912857Y-41542438D02*
X65008095Y-41637676D01*
X65008095Y-41637676D02*
X65055714Y-41732914D01*
X65055714Y-41732914D02*
X65103333Y-41923390D01*
X65103333Y-41923390D02*
X65103333Y-42066247D01*
X65103333Y-42066247D02*
X65055714Y-42256723D01*
X65055714Y-42256723D02*
X65008095Y-42351961D01*
X65008095Y-42351961D02*
X64912857Y-42447200D01*
X64912857Y-42447200D02*
X64770000Y-42494819D01*
X64770000Y-42494819D02*
X64531905Y-42494819D01*
X65531905Y-42494819D02*
X65531905Y-41494819D01*
X65531905Y-41494819D02*
X65770000Y-41494819D01*
X65770000Y-41494819D02*
X65912857Y-41542438D01*
X65912857Y-41542438D02*
X66008095Y-41637676D01*
X66008095Y-41637676D02*
X66055714Y-41732914D01*
X66055714Y-41732914D02*
X66103333Y-41923390D01*
X66103333Y-41923390D02*
X66103333Y-42066247D01*
X66103333Y-42066247D02*
X66055714Y-42256723D01*
X66055714Y-42256723D02*
X66008095Y-42351961D01*
X66008095Y-42351961D02*
X65912857Y-42447200D01*
X65912857Y-42447200D02*
X65770000Y-42494819D01*
X65770000Y-42494819D02*
X65531905Y-42494819D01*
X74891666Y-84304819D02*
X74891666Y-85019104D01*
X74891666Y-85019104D02*
X74844047Y-85161961D01*
X74844047Y-85161961D02*
X74748809Y-85257200D01*
X74748809Y-85257200D02*
X74605952Y-85304819D01*
X74605952Y-85304819D02*
X74510714Y-85304819D01*
X75272619Y-84304819D02*
X75939285Y-84304819D01*
X75939285Y-84304819D02*
X75510714Y-85304819D01*
X63991905Y-62994819D02*
X63991905Y-61994819D01*
X63991905Y-61994819D02*
X64230000Y-61994819D01*
X64230000Y-61994819D02*
X64372857Y-62042438D01*
X64372857Y-62042438D02*
X64468095Y-62137676D01*
X64468095Y-62137676D02*
X64515714Y-62232914D01*
X64515714Y-62232914D02*
X64563333Y-62423390D01*
X64563333Y-62423390D02*
X64563333Y-62566247D01*
X64563333Y-62566247D02*
X64515714Y-62756723D01*
X64515714Y-62756723D02*
X64468095Y-62851961D01*
X64468095Y-62851961D02*
X64372857Y-62947200D01*
X64372857Y-62947200D02*
X64230000Y-62994819D01*
X64230000Y-62994819D02*
X63991905Y-62994819D01*
X65515714Y-62994819D02*
X64944286Y-62994819D01*
X65230000Y-62994819D02*
X65230000Y-61994819D01*
X65230000Y-61994819D02*
X65134762Y-62137676D01*
X65134762Y-62137676D02*
X65039524Y-62232914D01*
X65039524Y-62232914D02*
X64944286Y-62280533D01*
X63396667Y-56494819D02*
X63396667Y-55494819D01*
X63396667Y-55494819D02*
X63777619Y-55494819D01*
X63777619Y-55494819D02*
X63872857Y-55542438D01*
X63872857Y-55542438D02*
X63920476Y-55590057D01*
X63920476Y-55590057D02*
X63968095Y-55685295D01*
X63968095Y-55685295D02*
X63968095Y-55828152D01*
X63968095Y-55828152D02*
X63920476Y-55923390D01*
X63920476Y-55923390D02*
X63872857Y-55971009D01*
X63872857Y-55971009D02*
X63777619Y-56018628D01*
X63777619Y-56018628D02*
X63396667Y-56018628D01*
X64301429Y-55494819D02*
X64539524Y-56494819D01*
X64539524Y-56494819D02*
X64730000Y-55780533D01*
X64730000Y-55780533D02*
X64920476Y-56494819D01*
X64920476Y-56494819D02*
X65158572Y-55494819D01*
X66110952Y-56494819D02*
X65777619Y-56018628D01*
X65539524Y-56494819D02*
X65539524Y-55494819D01*
X65539524Y-55494819D02*
X65920476Y-55494819D01*
X65920476Y-55494819D02*
X66015714Y-55542438D01*
X66015714Y-55542438D02*
X66063333Y-55590057D01*
X66063333Y-55590057D02*
X66110952Y-55685295D01*
X66110952Y-55685295D02*
X66110952Y-55828152D01*
X66110952Y-55828152D02*
X66063333Y-55923390D01*
X66063333Y-55923390D02*
X66015714Y-55971009D01*
X66015714Y-55971009D02*
X65920476Y-56018628D01*
X65920476Y-56018628D02*
X65539524Y-56018628D01*
X54490057Y-44865238D02*
X54442438Y-44960476D01*
X54442438Y-44960476D02*
X54347200Y-45055714D01*
X54347200Y-45055714D02*
X54204342Y-45198571D01*
X54204342Y-45198571D02*
X54156723Y-45293809D01*
X54156723Y-45293809D02*
X54156723Y-45389047D01*
X54394819Y-45341428D02*
X54347200Y-45436666D01*
X54347200Y-45436666D02*
X54251961Y-45531904D01*
X54251961Y-45531904D02*
X54061485Y-45579523D01*
X54061485Y-45579523D02*
X53728152Y-45579523D01*
X53728152Y-45579523D02*
X53537676Y-45531904D01*
X53537676Y-45531904D02*
X53442438Y-45436666D01*
X53442438Y-45436666D02*
X53394819Y-45341428D01*
X53394819Y-45341428D02*
X53394819Y-45150952D01*
X53394819Y-45150952D02*
X53442438Y-45055714D01*
X53442438Y-45055714D02*
X53537676Y-44960476D01*
X53537676Y-44960476D02*
X53728152Y-44912857D01*
X53728152Y-44912857D02*
X54061485Y-44912857D01*
X54061485Y-44912857D02*
X54251961Y-44960476D01*
X54251961Y-44960476D02*
X54347200Y-45055714D01*
X54347200Y-45055714D02*
X54394819Y-45150952D01*
X54394819Y-45150952D02*
X54394819Y-45341428D01*
X53394819Y-44579523D02*
X53394819Y-43960476D01*
X53394819Y-43960476D02*
X53775771Y-44293809D01*
X53775771Y-44293809D02*
X53775771Y-44150952D01*
X53775771Y-44150952D02*
X53823390Y-44055714D01*
X53823390Y-44055714D02*
X53871009Y-44008095D01*
X53871009Y-44008095D02*
X53966247Y-43960476D01*
X53966247Y-43960476D02*
X54204342Y-43960476D01*
X54204342Y-43960476D02*
X54299580Y-44008095D01*
X54299580Y-44008095D02*
X54347200Y-44055714D01*
X54347200Y-44055714D02*
X54394819Y-44150952D01*
X54394819Y-44150952D02*
X54394819Y-44436666D01*
X54394819Y-44436666D02*
X54347200Y-44531904D01*
X54347200Y-44531904D02*
X54299580Y-44579523D01*
X45416667Y-51407200D02*
X45559524Y-51454819D01*
X45559524Y-51454819D02*
X45797619Y-51454819D01*
X45797619Y-51454819D02*
X45892857Y-51407200D01*
X45892857Y-51407200D02*
X45940476Y-51359580D01*
X45940476Y-51359580D02*
X45988095Y-51264342D01*
X45988095Y-51264342D02*
X45988095Y-51169104D01*
X45988095Y-51169104D02*
X45940476Y-51073866D01*
X45940476Y-51073866D02*
X45892857Y-51026247D01*
X45892857Y-51026247D02*
X45797619Y-50978628D01*
X45797619Y-50978628D02*
X45607143Y-50931009D01*
X45607143Y-50931009D02*
X45511905Y-50883390D01*
X45511905Y-50883390D02*
X45464286Y-50835771D01*
X45464286Y-50835771D02*
X45416667Y-50740533D01*
X45416667Y-50740533D02*
X45416667Y-50645295D01*
X45416667Y-50645295D02*
X45464286Y-50550057D01*
X45464286Y-50550057D02*
X45511905Y-50502438D01*
X45511905Y-50502438D02*
X45607143Y-50454819D01*
X45607143Y-50454819D02*
X45845238Y-50454819D01*
X45845238Y-50454819D02*
X45988095Y-50502438D01*
X46321429Y-50454819D02*
X46559524Y-51454819D01*
X46559524Y-51454819D02*
X46750000Y-50740533D01*
X46750000Y-50740533D02*
X46940476Y-51454819D01*
X46940476Y-51454819D02*
X47178572Y-50454819D01*
X47511905Y-50550057D02*
X47559524Y-50502438D01*
X47559524Y-50502438D02*
X47654762Y-50454819D01*
X47654762Y-50454819D02*
X47892857Y-50454819D01*
X47892857Y-50454819D02*
X47988095Y-50502438D01*
X47988095Y-50502438D02*
X48035714Y-50550057D01*
X48035714Y-50550057D02*
X48083333Y-50645295D01*
X48083333Y-50645295D02*
X48083333Y-50740533D01*
X48083333Y-50740533D02*
X48035714Y-50883390D01*
X48035714Y-50883390D02*
X47464286Y-51454819D01*
X47464286Y-51454819D02*
X48083333Y-51454819D01*
X45702380Y-41754819D02*
X45369047Y-41278628D01*
X45130952Y-41754819D02*
X45130952Y-40754819D01*
X45130952Y-40754819D02*
X45511904Y-40754819D01*
X45511904Y-40754819D02*
X45607142Y-40802438D01*
X45607142Y-40802438D02*
X45654761Y-40850057D01*
X45654761Y-40850057D02*
X45702380Y-40945295D01*
X45702380Y-40945295D02*
X45702380Y-41088152D01*
X45702380Y-41088152D02*
X45654761Y-41183390D01*
X45654761Y-41183390D02*
X45607142Y-41231009D01*
X45607142Y-41231009D02*
X45511904Y-41278628D01*
X45511904Y-41278628D02*
X45130952Y-41278628D01*
X46083333Y-41707200D02*
X46226190Y-41754819D01*
X46226190Y-41754819D02*
X46464285Y-41754819D01*
X46464285Y-41754819D02*
X46559523Y-41707200D01*
X46559523Y-41707200D02*
X46607142Y-41659580D01*
X46607142Y-41659580D02*
X46654761Y-41564342D01*
X46654761Y-41564342D02*
X46654761Y-41469104D01*
X46654761Y-41469104D02*
X46607142Y-41373866D01*
X46607142Y-41373866D02*
X46559523Y-41326247D01*
X46559523Y-41326247D02*
X46464285Y-41278628D01*
X46464285Y-41278628D02*
X46273809Y-41231009D01*
X46273809Y-41231009D02*
X46178571Y-41183390D01*
X46178571Y-41183390D02*
X46130952Y-41135771D01*
X46130952Y-41135771D02*
X46083333Y-41040533D01*
X46083333Y-41040533D02*
X46083333Y-40945295D01*
X46083333Y-40945295D02*
X46130952Y-40850057D01*
X46130952Y-40850057D02*
X46178571Y-40802438D01*
X46178571Y-40802438D02*
X46273809Y-40754819D01*
X46273809Y-40754819D02*
X46511904Y-40754819D01*
X46511904Y-40754819D02*
X46654761Y-40802438D01*
X46940476Y-40754819D02*
X47511904Y-40754819D01*
X47226190Y-41754819D02*
X47226190Y-40754819D01*
X54490057Y-71685238D02*
X54442438Y-71780476D01*
X54442438Y-71780476D02*
X54347200Y-71875714D01*
X54347200Y-71875714D02*
X54204342Y-72018571D01*
X54204342Y-72018571D02*
X54156723Y-72113809D01*
X54156723Y-72113809D02*
X54156723Y-72209047D01*
X54394819Y-72161428D02*
X54347200Y-72256666D01*
X54347200Y-72256666D02*
X54251961Y-72351904D01*
X54251961Y-72351904D02*
X54061485Y-72399523D01*
X54061485Y-72399523D02*
X53728152Y-72399523D01*
X53728152Y-72399523D02*
X53537676Y-72351904D01*
X53537676Y-72351904D02*
X53442438Y-72256666D01*
X53442438Y-72256666D02*
X53394819Y-72161428D01*
X53394819Y-72161428D02*
X53394819Y-71970952D01*
X53394819Y-71970952D02*
X53442438Y-71875714D01*
X53442438Y-71875714D02*
X53537676Y-71780476D01*
X53537676Y-71780476D02*
X53728152Y-71732857D01*
X53728152Y-71732857D02*
X54061485Y-71732857D01*
X54061485Y-71732857D02*
X54251961Y-71780476D01*
X54251961Y-71780476D02*
X54347200Y-71875714D01*
X54347200Y-71875714D02*
X54394819Y-71970952D01*
X54394819Y-71970952D02*
X54394819Y-72161428D01*
X54394819Y-70780476D02*
X54394819Y-71351904D01*
X54394819Y-71066190D02*
X53394819Y-71066190D01*
X53394819Y-71066190D02*
X53537676Y-71161428D01*
X53537676Y-71161428D02*
X53632914Y-71256666D01*
X53632914Y-71256666D02*
X53680533Y-71351904D01*
X53990057Y-58865238D02*
X53942438Y-58960476D01*
X53942438Y-58960476D02*
X53847200Y-59055714D01*
X53847200Y-59055714D02*
X53704342Y-59198571D01*
X53704342Y-59198571D02*
X53656723Y-59293809D01*
X53656723Y-59293809D02*
X53656723Y-59389047D01*
X53894819Y-59341428D02*
X53847200Y-59436666D01*
X53847200Y-59436666D02*
X53751961Y-59531904D01*
X53751961Y-59531904D02*
X53561485Y-59579523D01*
X53561485Y-59579523D02*
X53228152Y-59579523D01*
X53228152Y-59579523D02*
X53037676Y-59531904D01*
X53037676Y-59531904D02*
X52942438Y-59436666D01*
X52942438Y-59436666D02*
X52894819Y-59341428D01*
X52894819Y-59341428D02*
X52894819Y-59150952D01*
X52894819Y-59150952D02*
X52942438Y-59055714D01*
X52942438Y-59055714D02*
X53037676Y-58960476D01*
X53037676Y-58960476D02*
X53228152Y-58912857D01*
X53228152Y-58912857D02*
X53561485Y-58912857D01*
X53561485Y-58912857D02*
X53751961Y-58960476D01*
X53751961Y-58960476D02*
X53847200Y-59055714D01*
X53847200Y-59055714D02*
X53894819Y-59150952D01*
X53894819Y-59150952D02*
X53894819Y-59341428D01*
X52990057Y-58531904D02*
X52942438Y-58484285D01*
X52942438Y-58484285D02*
X52894819Y-58389047D01*
X52894819Y-58389047D02*
X52894819Y-58150952D01*
X52894819Y-58150952D02*
X52942438Y-58055714D01*
X52942438Y-58055714D02*
X52990057Y-58008095D01*
X52990057Y-58008095D02*
X53085295Y-57960476D01*
X53085295Y-57960476D02*
X53180533Y-57960476D01*
X53180533Y-57960476D02*
X53323390Y-58008095D01*
X53323390Y-58008095D02*
X53894819Y-58579523D01*
X53894819Y-58579523D02*
X53894819Y-57960476D01*
X60753333Y-63584819D02*
X60420000Y-63108628D01*
X60181905Y-63584819D02*
X60181905Y-62584819D01*
X60181905Y-62584819D02*
X60562857Y-62584819D01*
X60562857Y-62584819D02*
X60658095Y-62632438D01*
X60658095Y-62632438D02*
X60705714Y-62680057D01*
X60705714Y-62680057D02*
X60753333Y-62775295D01*
X60753333Y-62775295D02*
X60753333Y-62918152D01*
X60753333Y-62918152D02*
X60705714Y-63013390D01*
X60705714Y-63013390D02*
X60658095Y-63061009D01*
X60658095Y-63061009D02*
X60562857Y-63108628D01*
X60562857Y-63108628D02*
X60181905Y-63108628D01*
X61705714Y-63584819D02*
X61134286Y-63584819D01*
X61420000Y-63584819D02*
X61420000Y-62584819D01*
X61420000Y-62584819D02*
X61324762Y-62727676D01*
X61324762Y-62727676D02*
X61229524Y-62822914D01*
X61229524Y-62822914D02*
X61134286Y-62870533D01*
X100666666Y-84304819D02*
X100666666Y-85019104D01*
X100666666Y-85019104D02*
X100619047Y-85161961D01*
X100619047Y-85161961D02*
X100523809Y-85257200D01*
X100523809Y-85257200D02*
X100380952Y-85304819D01*
X100380952Y-85304819D02*
X100285714Y-85304819D01*
X101285714Y-84733390D02*
X101190476Y-84685771D01*
X101190476Y-84685771D02*
X101142857Y-84638152D01*
X101142857Y-84638152D02*
X101095238Y-84542914D01*
X101095238Y-84542914D02*
X101095238Y-84495295D01*
X101095238Y-84495295D02*
X101142857Y-84400057D01*
X101142857Y-84400057D02*
X101190476Y-84352438D01*
X101190476Y-84352438D02*
X101285714Y-84304819D01*
X101285714Y-84304819D02*
X101476190Y-84304819D01*
X101476190Y-84304819D02*
X101571428Y-84352438D01*
X101571428Y-84352438D02*
X101619047Y-84400057D01*
X101619047Y-84400057D02*
X101666666Y-84495295D01*
X101666666Y-84495295D02*
X101666666Y-84542914D01*
X101666666Y-84542914D02*
X101619047Y-84638152D01*
X101619047Y-84638152D02*
X101571428Y-84685771D01*
X101571428Y-84685771D02*
X101476190Y-84733390D01*
X101476190Y-84733390D02*
X101285714Y-84733390D01*
X101285714Y-84733390D02*
X101190476Y-84781009D01*
X101190476Y-84781009D02*
X101142857Y-84828628D01*
X101142857Y-84828628D02*
X101095238Y-84923866D01*
X101095238Y-84923866D02*
X101095238Y-85114342D01*
X101095238Y-85114342D02*
X101142857Y-85209580D01*
X101142857Y-85209580D02*
X101190476Y-85257200D01*
X101190476Y-85257200D02*
X101285714Y-85304819D01*
X101285714Y-85304819D02*
X101476190Y-85304819D01*
X101476190Y-85304819D02*
X101571428Y-85257200D01*
X101571428Y-85257200D02*
X101619047Y-85209580D01*
X101619047Y-85209580D02*
X101666666Y-85114342D01*
X101666666Y-85114342D02*
X101666666Y-84923866D01*
X101666666Y-84923866D02*
X101619047Y-84828628D01*
X101619047Y-84828628D02*
X101571428Y-84781009D01*
X101571428Y-84781009D02*
X101476190Y-84733390D01*
X45416667Y-65407200D02*
X45559524Y-65454819D01*
X45559524Y-65454819D02*
X45797619Y-65454819D01*
X45797619Y-65454819D02*
X45892857Y-65407200D01*
X45892857Y-65407200D02*
X45940476Y-65359580D01*
X45940476Y-65359580D02*
X45988095Y-65264342D01*
X45988095Y-65264342D02*
X45988095Y-65169104D01*
X45988095Y-65169104D02*
X45940476Y-65073866D01*
X45940476Y-65073866D02*
X45892857Y-65026247D01*
X45892857Y-65026247D02*
X45797619Y-64978628D01*
X45797619Y-64978628D02*
X45607143Y-64931009D01*
X45607143Y-64931009D02*
X45511905Y-64883390D01*
X45511905Y-64883390D02*
X45464286Y-64835771D01*
X45464286Y-64835771D02*
X45416667Y-64740533D01*
X45416667Y-64740533D02*
X45416667Y-64645295D01*
X45416667Y-64645295D02*
X45464286Y-64550057D01*
X45464286Y-64550057D02*
X45511905Y-64502438D01*
X45511905Y-64502438D02*
X45607143Y-64454819D01*
X45607143Y-64454819D02*
X45845238Y-64454819D01*
X45845238Y-64454819D02*
X45988095Y-64502438D01*
X46321429Y-64454819D02*
X46559524Y-65454819D01*
X46559524Y-65454819D02*
X46750000Y-64740533D01*
X46750000Y-64740533D02*
X46940476Y-65454819D01*
X46940476Y-65454819D02*
X47178572Y-64454819D01*
X48083333Y-65454819D02*
X47511905Y-65454819D01*
X47797619Y-65454819D02*
X47797619Y-64454819D01*
X47797619Y-64454819D02*
X47702381Y-64597676D01*
X47702381Y-64597676D02*
X47607143Y-64692914D01*
X47607143Y-64692914D02*
X47511905Y-64740533D01*
X44916667Y-55754819D02*
X44916667Y-54754819D01*
X44916667Y-54754819D02*
X45297619Y-54754819D01*
X45297619Y-54754819D02*
X45392857Y-54802438D01*
X45392857Y-54802438D02*
X45440476Y-54850057D01*
X45440476Y-54850057D02*
X45488095Y-54945295D01*
X45488095Y-54945295D02*
X45488095Y-55088152D01*
X45488095Y-55088152D02*
X45440476Y-55183390D01*
X45440476Y-55183390D02*
X45392857Y-55231009D01*
X45392857Y-55231009D02*
X45297619Y-55278628D01*
X45297619Y-55278628D02*
X44916667Y-55278628D01*
X45821429Y-54754819D02*
X46059524Y-55754819D01*
X46059524Y-55754819D02*
X46250000Y-55040533D01*
X46250000Y-55040533D02*
X46440476Y-55754819D01*
X46440476Y-55754819D02*
X46678572Y-54754819D01*
X47630952Y-55754819D02*
X47297619Y-55278628D01*
X47059524Y-55754819D02*
X47059524Y-54754819D01*
X47059524Y-54754819D02*
X47440476Y-54754819D01*
X47440476Y-54754819D02*
X47535714Y-54802438D01*
X47535714Y-54802438D02*
X47583333Y-54850057D01*
X47583333Y-54850057D02*
X47630952Y-54945295D01*
X47630952Y-54945295D02*
X47630952Y-55088152D01*
X47630952Y-55088152D02*
X47583333Y-55183390D01*
X47583333Y-55183390D02*
X47535714Y-55231009D01*
X47535714Y-55231009D02*
X47440476Y-55278628D01*
X47440476Y-55278628D02*
X47059524Y-55278628D01*
D14*
%TO.C,R3*%
X57040000Y-77500000D02*
X57810000Y-77500000D01*
X65120000Y-77500000D02*
X64350000Y-77500000D01*
X57810000Y-76130000D02*
X64350000Y-76130000D01*
X64350000Y-78870000D01*
X57810000Y-78870000D01*
X57810000Y-76130000D01*
%TO.C,J3*%
X49420000Y-68080000D02*
X49420000Y-78460000D01*
X46770000Y-70730000D02*
X46770000Y-68080000D01*
X46770000Y-68080000D02*
X49420000Y-68080000D01*
X44120000Y-78460000D02*
X49420000Y-78460000D01*
X44120000Y-70730000D02*
X46770000Y-70730000D01*
X44120000Y-70730000D02*
X44120000Y-78460000D01*
X44120000Y-69460000D02*
X44120000Y-68080000D01*
X44120000Y-68080000D02*
X45500000Y-68080000D01*
%TO.C,J2*%
X56620000Y-88420000D02*
X56620000Y-87040000D01*
X58000000Y-88420000D02*
X56620000Y-88420000D01*
X59270000Y-88420000D02*
X67000000Y-88420000D01*
X59270000Y-88420000D02*
X59270000Y-85770000D01*
X67000000Y-88420000D02*
X67000000Y-83120000D01*
X56620000Y-85770000D02*
X56620000Y-83120000D01*
X59270000Y-85770000D02*
X56620000Y-85770000D01*
X56620000Y-83120000D02*
X67000000Y-83120000D01*
%TO.C,J1*%
X41580000Y-88380000D02*
X41580000Y-87000000D01*
X42960000Y-88380000D02*
X41580000Y-88380000D01*
X44230000Y-88380000D02*
X51960000Y-88380000D01*
X44230000Y-88380000D02*
X44230000Y-85730000D01*
X51960000Y-88380000D02*
X51960000Y-83080000D01*
X41580000Y-85730000D02*
X41580000Y-83080000D01*
X44230000Y-85730000D02*
X41580000Y-85730000D01*
X41580000Y-83080000D02*
X51960000Y-83080000D01*
%TO.C,J7*%
X73895000Y-80810000D02*
X73895000Y-45190000D01*
X73895000Y-83410000D02*
X73895000Y-82080000D01*
X75225000Y-83410000D02*
X73895000Y-83410000D01*
X76555000Y-45190000D02*
X73895000Y-45190000D01*
X76555000Y-80810000D02*
X73895000Y-80810000D01*
X76555000Y-80810000D02*
X76555000Y-45190000D01*
%TO.C,Q3*%
X59350000Y-46570000D02*
X59350000Y-42970000D01*
X54900000Y-44770000D02*
G75*
G02*
X59338478Y-42931522I2600000J0D01*
G01*
X59338478Y-46608478D02*
G75*
G02*
X54899999Y-44770000I-1838478J1838478D01*
G01*
%TO.C,SW2*%
X43250000Y-45000000D02*
X43250000Y-46500000D01*
X44500000Y-49000000D02*
X49000000Y-49000000D01*
X49000000Y-42500000D02*
X44500000Y-42500000D01*
X50250000Y-46500000D02*
X50250000Y-45000000D01*
%TO.C,Q1*%
X59350000Y-73390000D02*
X59350000Y-69790000D01*
X59338478Y-73428478D02*
G75*
G02*
X54899999Y-71590000I-1838478J1838478D01*
G01*
X54900000Y-71590000D02*
G75*
G02*
X59338478Y-69751522I2600000J0D01*
G01*
%TO.C,Q2*%
X58850000Y-60570000D02*
X58850000Y-56970000D01*
X54400000Y-58770000D02*
G75*
G02*
X58838478Y-56931522I2600000J0D01*
G01*
X58838478Y-60608478D02*
G75*
G02*
X54399999Y-58770000I-1838478J1838478D01*
G01*
%TO.C,J8*%
X99670000Y-80810000D02*
X99670000Y-45190000D01*
X99670000Y-83410000D02*
X99670000Y-82080000D01*
X101000000Y-83410000D02*
X99670000Y-83410000D01*
X102330000Y-45190000D02*
X99670000Y-45190000D01*
X102330000Y-80810000D02*
X99670000Y-80810000D01*
X102330000Y-80810000D02*
X102330000Y-45190000D01*
%TO.C,SW1*%
X43250000Y-59000000D02*
X43250000Y-60500000D01*
X44500000Y-63000000D02*
X49000000Y-63000000D01*
X49000000Y-56500000D02*
X44500000Y-56500000D01*
X50250000Y-60500000D02*
X50250000Y-59000000D01*
%TD*%
M02*
