%TF.GenerationSoftware,KiCad,Pcbnew,9.0.3*%
%TF.CreationDate,2025-07-25T18:40:56+02:00*%
%TF.ProjectId,power_control.kicad_proj,706f7765-725f-4636-9f6e-74726f6c2e6b,rev?*%
%TF.SameCoordinates,Original*%
%TF.FileFunction,Copper,L2,Bot*%
%TF.FilePolarity,Positive*%
%FSLAX46Y46*%
G04 Gerber Fmt 4.6, Leading zero omitted, Abs format (unit mm)*
G04 Created by KiCad (PCBNEW 9.0.3) date 2025-07-25 18:40:56*
%MOMM*%
%LPD*%
G01*
G04 APERTURE LIST*
%TA.AperFunction,ComponentPad*%
%ADD10C,1.600000*%
%TD*%
%TA.AperFunction,ComponentPad*%
%ADD11R,1.800000X1.800000*%
%TD*%
%TA.AperFunction,ComponentPad*%
%ADD12C,1.800000*%
%TD*%
%TA.AperFunction,ComponentPad*%
%ADD13R,1.700000X1.700000*%
%TD*%
%TA.AperFunction,ComponentPad*%
%ADD14C,1.700000*%
%TD*%
%TA.AperFunction,ComponentPad*%
%ADD15C,2.000000*%
%TD*%
G04 APERTURE END LIST*
D10*
%TO.P,R1,1*%
%TO.N,GND*%
X57020000Y-97460000D03*
%TO.P,R1,2*%
%TO.N,Net-(D1-K)*%
X67180000Y-97460000D03*
%TD*%
D11*
%TO.P,PWR,1,K*%
%TO.N,Net-(D1-K)*%
X59600000Y-89960000D03*
D12*
%TO.P,PWR,2,A*%
%TO.N,Net-(D1-A)*%
X57060000Y-89960000D03*
%TD*%
D10*
%TO.P,R2,1*%
%TO.N,GND*%
X57020000Y-83460000D03*
%TO.P,R2,2*%
%TO.N,Net-(D2-K)*%
X67180000Y-83460000D03*
%TD*%
D11*
%TO.P,HDD,1,K*%
%TO.N,Net-(D2-K)*%
X59600000Y-75500000D03*
D12*
%TO.P,HDD,2,A*%
%TO.N,Net-(D2-A)*%
X57060000Y-75500000D03*
%TD*%
D13*
%TO.P,5V,1,Pin_1*%
%TO.N,+5V*%
X44000000Y-75380000D03*
D14*
%TO.P,5V,2,Pin_2*%
X44000000Y-77920000D03*
%TO.P,5V,3,Pin_3*%
X44000000Y-80460000D03*
%TO.P,5V,4,Pin_4*%
X44000000Y-83000000D03*
%TD*%
D13*
%TO.P,J7,1,Pin_1*%
%TO.N,+5V*%
X75225000Y-82080000D03*
D14*
%TO.P,J7,2,Pin_2*%
%TO.N,GND*%
X75225000Y-79540000D03*
%TO.P,J7,3,Pin_3*%
%TO.N,unconnected-(J7-Pin_3-Pad3)*%
X75225000Y-77000000D03*
%TO.P,J7,4,Pin_4*%
%TO.N,unconnected-(J7-Pin_4-Pad4)*%
X75225000Y-74460000D03*
%TO.P,J7,5,Pin_5*%
%TO.N,unconnected-(J7-Pin_5-Pad5)*%
X75225000Y-71920000D03*
%TO.P,J7,6,Pin_6*%
%TO.N,unconnected-(J7-Pin_6-Pad6)*%
X75225000Y-69380000D03*
%TO.P,J7,7,Pin_7*%
%TO.N,unconnected-(J7-Pin_7-Pad7)*%
X75225000Y-66840000D03*
%TO.P,J7,8,Pin_8*%
%TO.N,unconnected-(J7-Pin_8-Pad8)*%
X75225000Y-64300000D03*
%TO.P,J7,9,Pin_9*%
%TO.N,unconnected-(J7-Pin_9-Pad9)*%
X75225000Y-61760000D03*
%TO.P,J7,10,Pin_10*%
%TO.N,unconnected-(J7-Pin_10-Pad10)*%
X75225000Y-59220000D03*
%TO.P,J7,11,Pin_11*%
%TO.N,unconnected-(J7-Pin_11-Pad11)*%
X75225000Y-56680000D03*
%TO.P,J7,12,Pin_12*%
%TO.N,unconnected-(J7-Pin_12-Pad12)*%
X75225000Y-54140000D03*
%TO.P,J7,13,Pin_13*%
%TO.N,unconnected-(J7-Pin_13-Pad13)*%
X75225000Y-51600000D03*
%TO.P,J7,14,Pin_14*%
%TO.N,unconnected-(J7-Pin_14-Pad14)*%
X75225000Y-49060000D03*
%TO.P,J7,15,Pin_15*%
%TO.N,unconnected-(J7-Pin_15-Pad15)*%
X75225000Y-46520000D03*
%TD*%
D15*
%TO.P,RST,1,1*%
%TO.N,Net-(J6-Pin_3)*%
X63500000Y-51000000D03*
X57000000Y-51000000D03*
%TO.P,RST,2,2*%
%TO.N,Net-(J6-Pin_1)*%
X63500000Y-46500000D03*
X57000000Y-46500000D03*
%TD*%
D13*
%TO.P,GND,1,Pin_1*%
%TO.N,GND*%
X44000000Y-89960000D03*
D14*
%TO.P,GND,2,Pin_2*%
X44000000Y-92500000D03*
%TO.P,GND,3,Pin_3*%
X44000000Y-95040000D03*
%TO.P,GND,4,Pin_4*%
X44000000Y-97580000D03*
%TD*%
D13*
%TO.P,RST,1,Pin_1*%
%TO.N,Net-(J6-Pin_1)*%
X50000000Y-46500000D03*
D14*
%TO.P,RST,2,Pin_2*%
X50000000Y-49040000D03*
%TO.P,RST,3,Pin_3*%
%TO.N,Net-(J6-Pin_3)*%
X50000000Y-51580000D03*
%TO.P,RST,4,Pin_4*%
X50000000Y-54120000D03*
%TD*%
D13*
%TO.P,PWR,1,Pin_1*%
%TO.N,Net-(J5-Pin_1)*%
X50000000Y-60960000D03*
D14*
%TO.P,PWR,2,Pin_2*%
X50000000Y-63500000D03*
%TO.P,PWR,3,Pin_3*%
%TO.N,Net-(J5-Pin_3)*%
X50000000Y-66040000D03*
%TO.P,PWR,4,Pin_4*%
X50000000Y-68580000D03*
%TD*%
D13*
%TO.P,HDD,1,Pin_1*%
%TO.N,Net-(D2-A)*%
X50000000Y-75420000D03*
D14*
%TO.P,HDD,2,Pin_2*%
X50000000Y-77960000D03*
%TO.P,HDD,3,Pin_3*%
%TO.N,GND*%
X50000000Y-80500000D03*
%TO.P,HDD,4,Pin_4*%
X50000000Y-83040000D03*
%TD*%
D13*
%TO.P,J8,1,Pin_1*%
%TO.N,unconnected-(J8-Pin_1-Pad1)*%
X101000000Y-82080000D03*
D14*
%TO.P,J8,2,Pin_2*%
%TO.N,unconnected-(J8-Pin_2-Pad2)*%
X101000000Y-79540000D03*
%TO.P,J8,3,Pin_3*%
%TO.N,unconnected-(J8-Pin_3-Pad3)*%
X101000000Y-77000000D03*
%TO.P,J8,4,Pin_4*%
%TO.N,unconnected-(J8-Pin_4-Pad4)*%
X101000000Y-74460000D03*
%TO.P,J8,5,Pin_5*%
%TO.N,unconnected-(J8-Pin_5-Pad5)*%
X101000000Y-71920000D03*
%TO.P,J8,6,Pin_6*%
%TO.N,unconnected-(J8-Pin_6-Pad6)*%
X101000000Y-69380000D03*
%TO.P,J8,7,Pin_7*%
%TO.N,unconnected-(J8-Pin_7-Pad7)*%
X101000000Y-66840000D03*
%TO.P,J8,8,Pin_8*%
%TO.N,Net-(D1-A)*%
X101000000Y-64300000D03*
%TO.P,J8,9,Pin_9*%
%TO.N,Net-(J6-Pin_1)*%
X101000000Y-61760000D03*
%TO.P,J8,10,Pin_10*%
%TO.N,Net-(J5-Pin_1)*%
X101000000Y-59220000D03*
%TO.P,J8,11,Pin_11*%
X101000000Y-56680000D03*
%TO.P,J8,12,Pin_12*%
%TO.N,unconnected-(J8-Pin_12-Pad12)*%
X101000000Y-54140000D03*
%TO.P,J8,13,Pin_13*%
%TO.N,unconnected-(J8-Pin_13-Pad13)*%
X101000000Y-51600000D03*
%TO.P,J8,14,Pin_14*%
%TO.N,unconnected-(J8-Pin_14-Pad14)*%
X101000000Y-49060000D03*
%TO.P,J8,15,Pin_15*%
%TO.N,unconnected-(J8-Pin_15-Pad15)*%
X101000000Y-46520000D03*
%TD*%
D15*
%TO.P,PWR,1,1*%
%TO.N,Net-(J5-Pin_3)*%
X63500000Y-65500000D03*
X57000000Y-65500000D03*
%TO.P,PWR,2,2*%
%TO.N,Net-(J5-Pin_1)*%
X63500000Y-61000000D03*
X57000000Y-61000000D03*
%TD*%
D13*
%TO.P,PWR,1,Pin_1*%
%TO.N,Net-(D1-A)*%
X50000000Y-89960000D03*
D14*
%TO.P,PWR,2,Pin_2*%
X50000000Y-92500000D03*
%TO.P,PWR,3,Pin_3*%
%TO.N,GND*%
X50000000Y-95040000D03*
%TO.P,PWR,4,Pin_4*%
X50000000Y-97580000D03*
%TD*%
M02*
