M48
; DRILL file {KiCad 9.0.6} date 2025-12-16T22:51:56+0100
; FORMAT={-:-/ absolute / metric / decimal}
; #@! TF.CreationDate,2025-12-16T22:51:56+01:00
; #@! TF.GenerationSoftware,Kicad,Pcbnew,9.0.6
; #@! TF.FileFunction,Plated,1,2,PTH
FMAT,2
METRIC
; #@! TA.AperFunction,Plated,PTH,ComponentDrill
T1C0.750
; #@! TA.AperFunction,Plated,PTH,ComponentDrill
T2C0.800
; #@! TA.AperFunction,Plated,PTH,ComponentDrill
T3C0.900
; #@! TA.AperFunction,Plated,PTH,ComponentDrill
T4C1.000
; #@! TA.AperFunction,Plated,PTH,ComponentDrill
T5C1.100
%
G90
G05
T1
X57.0Y-57.5
X57.0Y-58.77
X57.0Y-60.04
X57.5Y-43.5
X57.5Y-44.77
X57.5Y-46.04
X57.5Y-70.32
X57.5Y-71.59
X57.5Y-72.86
T2
X55.84Y-52.0
X55.84Y-65.5
X56.0Y-77.5
X66.0Y-52.0
X66.0Y-65.5
X66.16Y-77.5
T3
X63.46Y-59.0
X63.5Y-45.0
X66.0Y-59.0
X66.04Y-45.0
T4
X42.96Y-84.46
X42.96Y-87.0
X45.5Y-69.46
X45.5Y-72.0
X45.5Y-74.54
X45.5Y-77.08
X45.5Y-84.46
X45.5Y-87.0
X48.04Y-69.46
X48.04Y-72.0
X48.04Y-74.54
X48.04Y-77.08
X48.04Y-84.46
X48.04Y-87.0
X50.58Y-84.46
X50.58Y-87.0
X58.0Y-84.5
X58.0Y-87.04
X60.54Y-84.5
X60.54Y-87.04
X63.08Y-84.5
X63.08Y-87.04
X65.62Y-84.5
X65.62Y-87.04
X75.225Y-46.52
X75.225Y-49.06
X75.225Y-51.6
X75.225Y-54.14
X75.225Y-56.68
X75.225Y-59.22
X75.225Y-61.76
X75.225Y-64.3
X75.225Y-66.84
X75.225Y-69.38
X75.225Y-71.92
X75.225Y-74.46
X75.225Y-77.0
X75.225Y-79.54
X75.225Y-82.08
X101.0Y-46.52
X101.0Y-49.06
X101.0Y-51.6
X101.0Y-54.14
X101.0Y-56.68
X101.0Y-59.22
X101.0Y-61.76
X101.0Y-64.3
X101.0Y-66.84
X101.0Y-69.38
X101.0Y-71.92
X101.0Y-74.46
X101.0Y-77.0
X101.0Y-79.54
X101.0Y-82.08
T5
X43.5Y-43.5
X43.5Y-48.0
X43.5Y-57.5
X43.5Y-62.0
X50.0Y-43.5
X50.0Y-48.0
X50.0Y-57.5
X50.0Y-62.0
M30
